<svg width="1488" height="1484" viewBox="0 0 1488 1484" fill="none" xmlns="http://www.w3.org/2000/svg">
<path d="M1459.53 1450.05H1372.14L1246.98 1313.44L1280.43 1054.21L1367.82 926.208L1330.06 1291.93L1365.66 1380.14H1401.27L1459.53 1450.05Z" fill="#1C1C21"/>
<path d="M1108.57 911L943.197 735.134L992.576 995.983L1002.24 1342.71L1024.78 1334.12L1122.46 1475.82H1215.85L1162.18 1396.38H1131.05L1095.63 1334.12L1108.57 911Z" fill="#484858"/>
<path d="M1108.57 911L1101.07 981L1106.36 974.514L1108.57 911Z" fill="black"/>
<path d="M1028.07 445.5L1021.56 445.302L942.124 734.06L1108.57 911L1154.86 811.5L1028.07 445.5Z" fill="#2F2F39"/>
<path d="M582.814 720.105L547.093 838.355L679.607 830.558L775 881L746.44 850.05L582.814 720.105Z" fill="#232323"/>
<path d="M641.557 655.699L506.302 476.432L602.913 688.976L641.557 655.699Z" fill="black"/>
<path d="M1248.06 1313.72L1371.5 1447.91L1291 1452.2L1239.47 1318.02L1206.57 958L1370.43 902.592V922.988L1281.33 1055.02L1248.06 1313.72Z" fill="black"/>
<path d="M1108.57 911L1100.57 982.5L1204.57 956.368L1304.95 839.832L1265.24 715.812L1154.86 811.5L1108.57 911Z" fill="black"/>
<path d="M1171.84 859.655L1108.57 911L1154.86 811.5L1171.84 859.655Z" fill="#2F2F39"/>
<path d="M203.466 1170.95L221.072 1178.6L164.572 1374.99H200.119L249.21 1452.2L126.482 1448.89L112.072 1245.1L203.466 1170.95Z" fill="#2F2F39"/>
<path d="M113.419 1249.32L132.741 1450.05H115.566L86.5824 1435.02L113.419 1249.32Z" fill="black"/>
<path d="M210.172 1181.69L226.072 1180.1L289.136 1124.41L437.054 933.106L468.195 874.683L221.294 1029.33L128.984 1131.29L210.172 1181.69Z" fill="#2F2F39"/>
<path d="M219.072 1181.6L130.594 1131.24L114.492 1247.17L219.072 1181.6Z" fill="black"/>
<path d="M676.981 828.524L551.387 834.965L508.449 903.666L527.771 1052.88L456.923 1158.07L542.799 1415.7H719.919L654.439 1337.34H609.354L569.636 1177.4L542.799 1052.88L713.478 1016.38L743.535 860.728L676.981 828.524Z" fill="#1C1C21"/>
<path d="M713.572 1016.1L570.072 1182.6L528.845 1046.34L713.572 1016.1Z" fill="black"/>
<path d="M642.631 648.57L614.498 694.343L511.072 477.604L642.631 648.57Z" fill="#2F2F39"/>
<path d="M1021.56 445.302L511.572 478.104L641.557 649.258L1021.56 445.302Z" fill="#484858"/>
<path d="M279.072 739.604L464.681 894.005L513.072 478.104L371.989 549.959L325.572 641.604L279.072 739.604Z" fill="#2F2F39"/>
<path d="M641.072 649.5L878.847 876.83L945.245 732.314L1026.07 447.75L1017.07 445.5L641.072 649.5Z" fill="#1C1C21"/>
<path d="M281.128 739.428L220.764 1042.14L463.572 881.604L281.128 739.428Z" fill="#1C1C21"/>
<path d="M512.634 477.235L641 650.111L540.072 794.604L497.572 845.604L477.072 864.104L462.072 881.604L512.634 477.235Z" fill="#1C1C21"/>
<path d="M434.017 934.128L310.572 1097.1L486.699 938.461L553.359 834.478L677.003 826.896L740.437 859.391L947.572 959.104L1000.43 1278L996.325 999.118L942.567 729.411L872.681 869.139L641.522 649.258L461.971 881.054L434.017 934.128Z" fill="black"/>
<path d="M72.0719 548.104L95.0719 563.604L377.072 544.104L227.072 529.104L118.786 467.293L5 369.087L72.0719 548.104Z" fill="#484858"/>
<path d="M94.0966 561.479L386.076 541.913L335.072 624.604L202.196 627.789L94.0966 561.479Z" fill="black"/>
<path d="M357.072 543.604L201.122 632.083L101.572 560.104L357.072 543.604Z" fill="#2F2F39"/>
<path d="M1287.78 738.985L1171.61 859.655L1028.07 447L1287.78 738.985Z" fill="#484858"/>
<path d="M1184.08 969.146L1178.28 968.026L1282.69 846.997L1390.2 679.455L1465.97 561.234L1462.57 665L1456.57 762.5L1370.57 907L1184.08 969.146Z" fill="#484858"/>
<path d="M1390.2 679.455L1367.27 916.399L1266.7 949.851L1175.7 969.851V858.955L1262.07 722.104L1390.2 679.455Z" fill="black"/>
<path d="M1122.46 1472.59L1122.46 1475.82L1060 1477.1H1053.07L1020.07 1388.1L1004.57 1339.6L1001.16 1299.77L1122.46 1472.59Z" fill="black"/>
<path d="M1360.67 530.726L1224.5 654L1262.07 722.104L1390.2 679.455L1432.69 617.052L1360.67 530.726Z" fill="#2F2F39"/>
<path d="M1031.57 118L901.072 162L903.706 163.715L970.521 179.356L938.186 233.354L1003.93 301.391C1066.81 307.151 1192.99 318.67 1194.71 318.67C1196.44 318.67 1168.12 328.75 1153.75 333.789L1338.57 506L1300.85 371.976L1260.46 290.179L1253.99 187.996L1260.57 14.5L1146.07 6L1056.57 57.5L1031.57 118Z" fill="#2F2F39"/>
<path d="M1122.5 148.846L1178.55 113.278L1103.1 87.4102L1093.4 111.122L1095.56 132.678L1107.41 146.69L1122.5 148.846Z" fill="black"/>
<path d="M1294.95 225.37L1321.9 318.062L1416.74 223.214L1481.41 124.056V108.966L1344.53 18.4299L1269.08 14.1187L1289.56 94.9546L1294.95 225.37Z" fill="#2F2F39"/>
<path d="M1478.98 110.44L1287.94 96.4483L1266.95 18.418L1343.37 22.7232L1478.98 110.44Z" fill="#484858"/>
<path d="M1381.57 507.196L1251.86 701.855L1099.59 404.802L1381.57 507.196Z" fill="#2F2F39"/>
<path d="M903.706 163.715L972.409 177.707L938.603 232.597L1002.94 298.25L1202.51 316.547L1157.8 332.691L1333.57 497L1106.57 409L1263 723.5L1027.07 447.5L1094.07 340L1027.07 327.5L953.572 316.547L916.5 260L903.706 163.715Z" fill="black"/>
<path d="M1424.32 268.115L1300.31 371.976L1332.6 495.748L1435.39 626.516L1468.57 571.5L1424.32 268.115Z" fill="#484858"/>
<path d="M1269.08 14.1187L1259.38 11.9634L1251.84 186.569L1259.38 288.026L1300.85 372.514L1423.21 273.872L1481.41 124.056L1416.74 223.214L1321.9 318.062L1294.95 225.37L1289.56 94.9546L1269.08 14.1187Z" fill="black"/>
<path d="M1056.57 59.5L1031.07 121.5L1082.9 91.9459L1056.57 59.5Z" fill="#484858"/>
<path d="M1108.57 911L943.197 735.134L992.576 995.983L1002.24 1342.71L1024.78 1334.12L1122.46 1475.82M1108.57 911L1095.63 1334.12L1131.05 1396.38H1162.18L1215.85 1475.82H1122.46M1108.57 911L1101.07 981L1106.36 974.514L1108.57 911ZM1108.57 911L1154.86 811.5M1108.57 911L942.124 734.06L1021.56 445.302M1108.57 911L1100.57 982.5L1204.57 956.368L1304.95 839.832L1265.24 715.812L1154.86 811.5M1108.57 911L1171.84 859.655L1154.86 811.5M1122.46 1475.82L1060 1477.1H1053.07L1020.07 1388.1L1004.57 1339.6L1001.16 1299.77L1122.46 1472.59L1122.46 1475.82ZM1154.86 811.5L1028.07 445.5L1021.56 445.302M1021.56 445.302L511.572 478.104L641.557 649.258L1021.56 445.302ZM1026.07 447.75L1017.07 445.5L641.072 649.5L878.847 876.83L945.245 732.314L1026.07 447.75ZM1026.07 447.75L1035.07 450M1390.2 679.455L1465.97 561.234L1462.57 665L1456.57 762.5L1370.57 907L1184.08 969.146L1178.28 968.026L1282.69 846.997L1390.2 679.455ZM1390.2 679.455L1367.27 916.399L1266.7 949.851L1175.7 969.851V858.955L1262.07 722.104M1390.2 679.455L1262.07 722.104M1390.2 679.455L1432.69 617.052L1360.67 530.726L1224.5 654L1262.07 722.104M1269.08 14.1187L1289.56 94.9546L1294.95 225.37L1321.9 318.062L1416.74 223.214L1481.41 124.056M1269.08 14.1187L1344.53 18.4299L1481.41 108.966V124.056M1269.08 14.1187L1259.38 11.9634L1251.84 186.569L1259.38 288.026L1300.85 372.514L1423.21 273.872L1481.41 124.056M903.706 163.715L972.409 177.707L938.603 232.597L1002.94 298.25L1202.51 316.547L1157.8 332.691L1333.57 497L1106.57 409L1263 723.5L1027.07 447.5L1094.07 340L1027.07 327.5L953.572 316.547L916.5 260L903.706 163.715ZM903.706 163.715L970.521 179.356L938.186 233.354L1003.93 301.391C1066.81 307.151 1192.99 318.67 1194.71 318.67C1196.44 318.67 1168.12 328.75 1153.75 333.789L1338.57 506L1300.85 371.976L1260.46 290.179L1253.99 187.996L1260.57 14.5L1146.07 6L1056.57 57.5L1031.57 118L901.072 162L903.706 163.715ZM1372.14 1450.05H1459.53L1401.27 1380.14H1365.66L1330.06 1291.93L1367.82 926.208L1280.43 1054.21L1246.98 1313.44L1372.14 1450.05ZM547.093 838.355L582.814 720.105L746.44 850.05L775 881L679.607 830.558L547.093 838.355ZM506.302 476.432L641.557 655.699L602.913 688.976L506.302 476.432ZM1371.5 1447.91L1248.06 1313.72L1281.33 1055.02L1370.43 922.988V902.592L1206.57 958L1239.47 1318.02L1291 1452.2L1371.5 1447.91ZM221.072 1178.6L203.466 1170.95L112.072 1245.1L126.482 1448.89L249.21 1452.2L200.119 1374.99H164.572L221.072 1178.6ZM132.741 1450.05L113.419 1249.32L86.5824 1435.02L115.566 1450.05H132.741ZM226.072 1180.1L210.172 1181.69L128.984 1131.29L221.294 1029.33L468.195 874.683L437.054 933.106L289.136 1124.41L226.072 1180.1ZM130.594 1131.24L219.072 1181.6L114.492 1247.17L130.594 1131.24ZM551.387 834.965L676.981 828.524L743.535 860.728L713.478 1016.38L542.799 1052.88L569.636 1177.4L609.354 1337.34H654.439L719.919 1415.7H542.799L456.923 1158.07L527.771 1052.88L508.449 903.666L551.387 834.965ZM570.072 1182.6L713.572 1016.1L528.845 1046.34L570.072 1182.6ZM614.498 694.343L642.631 648.57L511.072 477.604L614.498 694.343ZM464.681 894.005L279.072 739.604L325.572 641.604L371.989 549.959L513.072 478.104L464.681 894.005ZM220.764 1042.14L281.128 739.428L463.572 881.604L220.764 1042.14ZM641 650.111L512.634 477.235L462.072 881.604L477.072 864.104L497.572 845.604L540.072 794.604L641 650.111ZM310.572 1097.1L434.017 934.128L461.971 881.054L641.522 649.258L872.681 869.139L942.567 729.411L996.325 999.118L1000.43 1278L947.572 959.104L740.437 859.391L677.003 826.896L553.359 834.478L486.699 938.461L310.572 1097.1ZM95.0719 563.604L72.0719 548.104L5 369.087L118.786 467.293L227.072 529.104L377.072 544.104L95.0719 563.604ZM386.076 541.913L94.0966 561.479L202.196 627.789L335.072 624.604L386.076 541.913ZM201.122 632.083L357.072 543.604L101.572 560.104L201.122 632.083ZM1171.61 859.655L1287.78 738.985L1028.07 447L1171.61 859.655ZM1178.55 113.278L1122.5 148.846L1107.41 146.69L1095.56 132.678L1093.4 111.122L1103.1 87.4102L1178.55 113.278ZM1287.94 96.4483L1478.98 110.44L1343.37 22.7232L1266.95 18.418L1287.94 96.4483ZM1251.86 701.855L1381.57 507.196L1099.59 404.802L1251.86 701.855ZM1300.31 371.976L1424.32 268.115L1468.57 571.5L1435.39 626.516L1332.6 495.748L1300.31 371.976ZM1031.07 121.5L1056.57 59.5L1082.9 91.9459L1031.07 121.5Z" stroke="#484858" stroke-width="0.001"/>
<path d="M1321.05 319.448L1415.52 228.205M1415.52 228.205L1482.07 128.374V111.198L1344.67 19.9549L1142.86 6L1052.69 58.5992L1028 119.786L899.186 162.724L914.214 259.335L949.638 319.448L1090.26 341.991L1034.44 446.115L508.449 480.466L378.561 543.8L227.205 528.771L112.345 463.291L5 372.047L72.6275 548.093L196.074 629.676L328.5 627L277.657 735.948L219.69 1032.22L129.52 1127.76L85.5089 1436.91L111.272 1450.87H248.674L202.515 1378.95H164.944L219.69 1183.58L488.053 942.05L507.376 900.186L529.918 1052.62L457.997 1158.89L541.726 1417.59H717.772L653.365 1340.3H609.354L569.636 1183.58L712.405 1018.27L743.535 866.909L945.344 960.299L992.576 1246.91L1001.16 1340.3L1053.76 1478.78H1214.78L1163.26 1399.34H1128.9L1096.7 1334.93L1105.5 986L1209.41 960.299L1237.32 1319.91L1292.07 1451.94H1462.75L1401.56 1381.09H1366.14L1332.86 1296.29L1370.43 910.92L1456.31 764.931L1469.19 566.342L1415.52 228.205Z" stroke="black" stroke-width="10"/>
</svg>
