<svg width="3474" height="2090" viewBox="0 0 3474 2090" fill="none" xmlns="http://www.w3.org/2000/svg">
<path d="M2163.02 136.461L1340.52 929.961L1559.02 924.461V837.461L1716.28 680.461L1997.25 399.961L2181.55 215.961L2214.02 183.543L2163.02 136.461Z" fill="black"/>
<path d="M3042.52 942.461L2937.52 851.461V904.961V1003.46V1058.46L3320.52 988.461V933.062L3181.52 937.762L3042.52 942.461Z" fill="black"/>
<path d="M2029.52 1661.46L2591.02 1680.46V1562.96V1288.46V1003.46V980.961L2411.02 791.961H2046.02L1866.02 980.961V1267.46V1431.46L2029.52 1661.46Z" fill="black"/>
<path d="M1340.52 929.961L2163.02 136.461L2214.02 183.543L2448.45 399.961L2752.29 680.461L2937.52 851.461L3042.52 942.461L3102.02 872.461L2680.52 486.012L2158.02 6.96118L1296.02 859.461L1340.52 929.961Z" fill="#1C1C21"/>
<path d="M3465.52 880.461L2758.52 230.961L2158.02 6.96118L2680.52 486.012L3102.02 872.461L3283.77 876.461L3465.52 880.461Z" fill="#2F2F39"/>
<path d="M3465.52 880.461L3283.77 876.461L3102.02 872.461L3042.52 942.461L3181.52 937.762L3320.52 933.062L3427.02 929.461L3465.52 880.461Z" fill="#1C1C21"/>
<path d="M2937.52 1809.96L3320.52 1607.96V988.461L2937.52 1058.46V1288.46V1562.96V1809.96Z" fill="#1C1C21"/>
<path d="M2448.45 399.961L2214.02 183.543L2181.55 215.961L2383.44 399.961H2448.45Z" fill="black"/>
<path d="M2691.2 680.461H2752.29L2448.45 399.961H2383.44L2691.2 680.461Z" fill="black"/>
<path d="M2937.52 851.461L2752.29 680.461H2691.2L2937.52 904.961V851.461Z" fill="black"/>
<path d="M2181.55 215.961L1997.25 399.961H2383.44L2181.55 215.961Z" fill="#2F2F39"/>
<path d="M1997.25 399.961L1716.28 680.461H2691.2L2383.44 399.961H1997.25Z" fill="#2F2F39"/>
<path d="M1559.02 837.461V924.461V980.961H1866.02L2046.02 791.961H2411.02L2591.02 980.961V1003.46H2937.52V904.961L2691.2 680.461H1716.28L1559.02 837.461Z" fill="#2F2F39"/>
<path d="M1866.02 980.961H1559.02V1267.46H1866.02V980.961Z" fill="#2F2F39"/>
<path d="M1559.02 1280.46L1866.02 1431.46V1267.46H1559.02V1280.46Z" fill="#2F2F39"/>
<path d="M2937.52 1288.46H2591.02V1562.96H2937.52V1288.46Z" fill="#2F2F39"/>
<path d="M2937.52 1058.46V1003.46H2591.02V1288.46H2937.52V1058.46Z" fill="#2F2F39"/>
<path d="M2185.52 1776.46L2937.52 1809.96V1562.96H2591.02V1680.46L2029.52 1661.46L2185.52 1776.46Z" fill="#2F2F39"/>
<path d="M2937.52 1809.96L2185.52 1776.46L2029.52 1661.46M2937.52 1809.96L3320.52 1607.96V988.461M2937.52 1809.96V1562.96M2937.52 851.461L3042.52 942.461M2937.52 851.461L2752.29 680.461M2937.52 851.461V904.961M1340.52 929.961L2163.02 136.461L2214.02 183.543M1340.52 929.961L1559.02 924.461M1340.52 929.961L1296.02 859.461L2158.02 6.96118M1559.02 924.461V837.461L1716.28 680.461M1559.02 924.461V980.961M2214.02 183.543L2448.45 399.961M2214.02 183.543L2181.55 215.961M2158.02 6.96118L2758.52 230.961L3465.52 880.461M2158.02 6.96118L2680.52 486.012L3102.02 872.461M3465.52 880.461L3427.02 929.461L3320.52 933.062M3465.52 880.461L3283.77 876.461L3102.02 872.461M3102.02 872.461L3042.52 942.461M3042.52 942.461L3181.52 937.762L3320.52 933.062M3320.52 933.062V988.461M2937.52 1058.46L3320.52 988.461M2937.52 1058.46V1003.46M2937.52 1058.46V1288.46M2029.52 1661.46L2591.02 1680.46V1562.96M2029.52 1661.46L1866.02 1431.46M1866.02 980.961L2046.02 791.961H2411.02L2591.02 980.961V1003.46M1866.02 980.961H1559.02M1866.02 980.961V1267.46M1866.02 1431.46L1559.02 1280.46V1267.46M1866.02 1431.46V1267.46M1559.02 980.961V1267.46M1866.02 1267.46H1559.02M1716.28 680.461L1997.25 399.961M1716.28 680.461H2691.2M2752.29 680.461L2448.45 399.961M2752.29 680.461H2691.2M2448.45 399.961H2383.44M1997.25 399.961L2181.55 215.961M1997.25 399.961H2383.44M2591.02 1003.46H2937.52M2591.02 1003.46V1288.46M2937.52 1003.46V904.961M2591.02 1288.46H2937.52M2591.02 1288.46V1562.96M2937.52 1288.46V1562.96M2591.02 1562.96C2598.22 1562.96 2825.02 1562.96 2937.52 1562.96M2591.02 1562.96H2937.52M2181.55 215.961L2383.44 399.961M2937.52 904.961L2691.2 680.461M2383.44 399.961L2691.2 680.461" stroke="black" stroke-width="12"/>
<path d="M2514.02 323.461L2184.52 22.4612L2755.52 236.461L2377.02 140.961L2514.02 323.461Z" fill="#484858"/>
<path d="M3044.52 1045.46L3316.02 1604.46L3321.52 983.461L3044.52 1045.46Z" fill="black" stroke="black"/>
<rect x="1563.02" y="1254.96" width="299" height="9" fill="#484858"/>
<rect x="1563.02" y="967.961" width="302" height="9" fill="#484858"/>
<rect x="2595.02" y="989.961" width="338" height="9" fill="#484858"/>
<rect x="2595.02" y="1274.96" width="338" height="9" fill="#484858"/>
<rect x="2595.02" y="1549.96" width="338" height="9" fill="#484858"/>
<rect x="1726.02" y="667.961" width="955" height="9" fill="#484858"/>
<rect x="2006.02" y="386.961" width="368" height="9" fill="#484858"/>
<path d="M2683.33 663.552L2681.82 677.503L2669.53 666.087L2683.33 663.552Z" fill="black"/>
<path d="M1721.66 664.014L1724.74 678.426L1736.23 666.211L1721.66 664.014Z" fill="black"/>
<path d="M2001.66 384.014L2004.98 398.653L2016.48 386.438L2001.66 384.014Z" fill="black"/>
<path d="M2377.75 384.014L2374.26 398.817L2362.76 386.601L2377.75 384.014Z" fill="black"/>
<path fill-rule="evenodd" clip-rule="evenodd" d="M457.946 2007.46L438.528 1984.38L413.754 1928.32L466.651 1905.24H530.931L586.506 1928.32L554.366 1984.38L530.931 2007.46L494.104 2012.73L457.946 2007.46Z" fill="black"/>
<path d="M423.128 2077.37H586.506L559.723 2047.03L530.931 2007.46L494.104 2012.73L457.946 2007.46L438.528 2047.03L423.128 2077.37Z" fill="black"/>
<path d="M311.308 1984.38H390.318L364.205 1840.6L343.448 1897.32L311.308 1984.38Z" fill="black"/>
<path d="M364.205 1840.6L376.927 1654.62L318.003 1858.41L343.448 1897.32L364.205 1840.6Z" fill="#1C1C21"/>
<path d="M364.205 1840.6L409.067 1667.81L480.712 1559.65L376.927 1654.62L364.205 1840.6Z" fill="black"/>
<path d="M466.651 1905.24H530.931L644.76 1781.25L629.359 1735.08H494.104L466.651 1905.24Z" fill="#484858"/>
<path d="M654.803 1712L651.456 1735.08L644.76 1781.25L745.867 1742.34L654.803 1712Z" fill="black"/>
<path d="M413.754 1735.08L486.655 1781.25L473.319 1735.08L466.651 1712L413.754 1735.08Z" fill="black"/>
<path fill-rule="evenodd" clip-rule="evenodd" d="M586.506 1928.32L530.931 1905.24L644.76 1781.25L745.867 1742.34L798.094 1735.08L745.867 1858.41L674.891 1968.55L638.064 2007.46L621.324 2056.26L586.506 2077.37L559.723 2047.03L530.931 2007.46L554.366 1984.38L586.506 1928.32Z" fill="#1C1C21"/>
<path d="M674.891 1968.55L730.466 1959.97L816.508 1944.15L853.669 1826.09L745.867 1858.41L674.891 1968.55Z" fill="black"/>
<path fill-rule="evenodd" clip-rule="evenodd" d="M252.384 2027.9H58.8749L8.65625 1992.95L343.448 1897.32L311.308 1984.38L252.384 2027.9Z" fill="#1C1C21"/>
<path d="M58.8749 1928.32L8.65625 1992.95L343.448 1897.32L318.003 1858.41L186.765 1928.32H58.8749Z" fill="#484858"/>
<path d="M863.713 1514.15H759.258L853.669 1698.15L863.713 1514.15Z" fill="#484858"/>
<path d="M981.56 1559.65L863.713 1514.15L853.669 1698.15L981.56 1559.65Z" fill="#2F2F39"/>
<path d="M1018.39 1837.31L1082 1688.92L981.56 1559.65L853.669 1698.15L1018.39 1837.31Z" fill="#2F2F39"/>
<path d="M863.713 1872.26L917.949 1968.55L994.951 1899.3L1018.39 1837.31L853.669 1698.15V1826.09L863.713 1872.26Z" fill="#1C1C21"/>
<path fill-rule="evenodd" clip-rule="evenodd" d="M390.318 1984.38L383.896 1764.76L413.754 1735.08L512.182 1628.24H654.803L745.867 1742.34L798.094 1735.08L853.669 1698.15L759.258 1514.15H863.713L981.56 1559.65L1082 1688.92L1265.46 1464.68L1031.11 1257.6L530.931 1514.15L460.625 1492.38L292.559 1579.94L283.185 1742.34L318.003 1858.41L376.927 1654.62L480.712 1559.65L409.067 1667.81L364.205 1840.6L390.318 1984.38Z" fill="#484858"/>
<path d="M457.946 2007.46L438.528 1984.38L413.754 1928.32L466.651 1905.24L494.104 1735.08L486.655 1781.25L413.754 1735.08L383.896 1764.76L390.318 1984.38V2056.26L423.128 2077.37L438.528 2047.03L457.946 2007.46Z" fill="#2F2F39"/>
<path d="M486.655 1781.25L494.104 1735.08H473.319L486.655 1781.25Z" fill="#484858"/>
<path fill-rule="evenodd" clip-rule="evenodd" d="M494.104 1735.08H629.359H651.456L654.803 1712L745.867 1742.34L654.803 1628.24H512.182L413.754 1735.08L466.651 1712L473.319 1735.08H494.104Z" fill="#2F2F39"/>
<path d="M629.359 1735.08L644.76 1781.25L651.456 1735.08H629.359Z" fill="#484858"/>
<path d="M745.867 1858.41L853.669 1826.09V1698.15L798.094 1735.08L745.867 1858.41Z" fill="#1C1C21"/>
<path d="M638.064 2007.46L621.324 2056.26L625.342 2083.96H727.453H829.565L926.524 2041.96L917.949 1968.55L863.713 1872.26L816.508 1944.15L730.466 1959.97L674.891 1968.55L638.064 2007.46Z" fill="#2F2F39"/>
<path d="M1082 1688.92L1018.39 1837.31L994.951 1899.3L1039.81 1673.75L1082 1688.92Z" fill="black"/>
<path d="M2303.99 1676.39V1852.47L2443.93 1925.68L2303.99 1676.39Z" fill="black"/>
<path d="M2464.69 1787.84L2303.99 1676.39L2443.93 1925.68H2660.87L2747.25 1899.08L2464.69 1787.84Z" fill="#1C1C21"/>
<path d="M2747.25 1787.84H2464.69L2747.25 1899.08L2898.57 1852.47L2747.25 1787.84Z" fill="#484858"/>
<path d="M1685.29 1492.38L1721.45 1723.21L1917.64 1380.93L1685.29 1492.38Z" fill="#2F2F39"/>
<path d="M2003.34 1336.74L1655.83 1257.6H1343.47L1917.64 1380.93L1721.45 1723.21L1941.41 1812.57H2239.71L2018.07 1584.71L2244.87 1544.48L2238.37 1529.98L2003.34 1336.74Z" fill="#484858"/>
<path d="M2369.6 1942.83L2303.99 1887.43V1852.47V1676.39L2244.87 1544.48L2018.07 1584.71L2239.71 1812.57H1941.41L2161.36 1901.94H1899.56L1878.56 1950.08L1854.7 2004.82H1961.83H2068.96L2369.6 1942.83Z" fill="#2F2F39"/>
<path d="M1899.56 1901.94H2161.36L1941.41 1812.57L1721.45 1723.21L1640.43 1712.35L1710.07 1813.56L1631.72 1918.43L1878.56 1950.08L1899.56 1901.94Z" fill="black"/>
<path d="M1352.51 1673.75L1492.45 1941.51L1631.72 1918.43L1710.07 1813.56L1640.43 1712.35L1352.51 1673.75Z" fill="#1C1C21"/>
<path d="M1721.45 1723.21L1685.29 1492.38L1640.43 1712.35L1721.45 1723.21Z" fill="black"/>
<path fill-rule="evenodd" clip-rule="evenodd" d="M1437.55 2007.46L926.524 2041.96L917.949 1968.55L994.951 1899.3L1206.54 1852.47L1265.46 1826.09L1436.51 1946.71L1437.55 1950.08V2007.46Z" fill="#2F2F39"/>
<path d="M1352.51 1673.75L1437.55 1947.44L1436.51 1946.71L1437.55 1950.08L1492.45 1941.51L1352.51 1673.75Z" fill="black"/>
<path d="M816.508 1944.15L863.713 1872.26L853.669 1826.09L816.508 1944.15Z" fill="black"/>
<path fill-rule="evenodd" clip-rule="evenodd" d="M1685.29 1492.38L1917.64 1380.93L1343.47 1257.6H1031.11L1265.46 1464.68L1082 1688.92L1140.25 1765.42L1206.54 1852.47L1265.46 1826.09L1436.51 1946.71L1437.55 1947.44L1352.51 1673.75L1640.43 1712.35L1685.29 1492.38Z" fill="#2F2F39"/>
<path fill-rule="evenodd" clip-rule="evenodd" d="M994.951 1899.3L1039.81 1673.75L1082 1688.92L1140.25 1765.42L1074.69 1705.96L1018.39 1837.31L994.951 1899.3Z" fill="black"/>
<path d="M994.951 1899.3L1206.54 1852.47L1140.25 1765.42L1074.69 1705.96L1018.39 1837.31L994.951 1899.3Z" fill="black"/>
<path fill-rule="evenodd" clip-rule="evenodd" d="M457.946 2007.46L413.754 1928.32L460.625 1905.89L494.104 1892.04L549.679 1911.83L586.506 1928.32L530.931 2007.46L494.104 2012.73L457.946 2007.46Z" fill="black"/>
<path d="M423.128 2077.37H586.506L559.723 2047.03L530.931 2007.46L494.104 2012.73L457.946 2007.46L438.528 2047.03L423.128 2077.37Z" fill="black"/>
<path d="M389.524 1977.78L364.205 1840.6H315.995L389.524 1977.78Z" fill="black"/>
<path d="M364.205 1840.6L376.927 1654.62L315.995 1840.6H364.205Z" fill="black"/>
<path d="M364.205 1840.6L409.067 1667.81L480.712 1559.65L376.927 1654.62L364.205 1840.6Z" fill="black"/>
<path d="M460.625 1905.89L494.104 1892.04L549.679 1911.83L668.195 1772.23L644.76 1781.25L629.359 1735.08H501.469L487.826 1773.99L457.946 1758.3L466.651 1762.87L460.625 1905.89Z" fill="#484858"/>
<path d="M654.803 1712L629.359 1735.08L644.76 1781.25L745.867 1742.34L654.803 1712Z" fill="black"/>
<path d="M413.754 1735.08L487.826 1773.99L501.469 1735.08L466.651 1703.43L413.754 1735.08Z" fill="black"/>
<path fill-rule="evenodd" clip-rule="evenodd" d="M586.506 1928.32L549.679 1911.83L668.195 1772.23L644.76 1781.25L745.867 1742.34L779.646 1737.64L798.094 1735.08L794.784 1750.91L676.024 1969.96L638.064 2007.46L621.324 2056.26L586.506 2077.37L559.723 2047.03L530.931 2007.46L586.506 1928.32Z" fill="#2F2F39"/>
<path d="M58.8749 1928.32L8.65625 1992.95H133.868H172.704L283.185 1952.06L315.995 1840.6L308.236 1866.96L191.524 1928.32H58.8749Z" fill="#484858"/>
<path d="M457.946 2007.46L413.754 1928.32L460.625 1905.89L466.651 1762.87L457.946 1758.3L487.826 1773.99L413.754 1735.08L390.318 1740.02L389.524 1977.78L390.318 2056.26L423.128 2077.37L438.528 2047.03L457.946 2007.46Z" fill="#2F2F39"/>
<path fill-rule="evenodd" clip-rule="evenodd" d="M501.469 1735.08H629.359L654.803 1712L745.867 1742.34L779.646 1737.64L654.803 1628.24H512.182L413.754 1735.08L466.651 1703.43L501.469 1735.08Z" fill="#2F2F39"/>
<path d="M890.497 1923.7L868.024 1883.47L853.669 1698.15L798.094 1735.08L794.784 1750.91L676.024 1969.96L817.231 1942.96L890.497 1923.7Z" fill="#1C1C21"/>
<path fill-rule="evenodd" clip-rule="evenodd" d="M1220.52 1856.46L999.638 1896.66V1955.49V2014.31L1220.52 1856.46Z" fill="#1C1C21"/>
<path d="M2303.99 1681.05V1852.47L2443.93 1925.68L2303.99 1681.05Z" fill="black"/>
<path d="M2303.99 1681.05L2443.93 1925.68L2742.56 1898.66L2776.71 1887.43L2468.03 1875.23L2303.99 1681.05Z" fill="#1C1C21"/>
<path d="M2607.31 1789.82H2468.03L2303.99 1681.05L2468.03 1875.23L2776.71 1887.43L2898.57 1852.47L2607.31 1789.82Z" fill="#484858"/>
<path d="M1899.56 1901.94H2161.36L1941.41 1812.57L1721.45 1723.21L1715.35 1714.87L1718.4 1719.04L1685.29 1492.38L1715.35 1714.87L1724.8 1840.41L1634.02 1920.46L1878.56 1950.08L1899.56 1901.94Z" fill="black"/>
<path d="M1721.45 1723.21L1720.56 1717.56L1685.29 1492.38L1718.4 1719.04L1715.35 1714.87L1721.45 1723.21Z" fill="#2F2F39"/>
<path d="M1358.02 1676.96L1436.51 1946.71L1437.55 1950.08L1634.02 1920.46L1596.91 1873.22L1358.02 1676.96Z" fill="black"/>
<path d="M829.524 1972.46L890.497 1923.7L868.024 1883.47L853.669 1698.15L794.784 1883.47L829.524 1972.46Z" fill="black"/>
<path d="M364.205 1840.6L389.524 1977.78L390.318 1740.02L364.205 1840.6Z" fill="#2F2F39"/>
<path d="M931.341 2041.09L1437.55 2002.18L1274.84 1987.67L927.324 2021.31L931.341 2041.09Z" fill="black"/>
<path fill-rule="evenodd" clip-rule="evenodd" d="M621.324 2056.26L638.064 2007.46L676.024 1969.96L730.524 1972.46H829.524L890.497 1923.7L927.324 1970.46L999.638 2014.31L927.324 2021.31L778.509 2083.96H727.453H625.342L621.324 2056.26Z" fill="#1C1C21"/>
<path d="M829.565 2083.96L931.341 2041.09L927.324 2021.31L778.509 2083.96H829.565Z" fill="black"/>
<path fill-rule="evenodd" clip-rule="evenodd" d="M8.65625 1992.95L63.562 2027.9H165.339L82.3103 1992.95H8.65625Z" fill="#1C1C21"/>
<path d="M165.339 2027.9H252.384L318.003 1977.78H389.524L315.995 1840.6L283.185 1952.06L172.704 1992.95H82.3103L165.339 2027.9Z" fill="#1C1C21"/>
<path fill-rule="evenodd" clip-rule="evenodd" d="M390.318 1740.02L413.754 1735.08L512.182 1628.24H654.803L779.646 1737.64L798.094 1735.08L853.669 1698.15L1041.15 1684.3L1064.96 1470.8L1031.11 1257.6L530.931 1514.15L460.625 1492.38L291.22 1579.94L314.655 1617.69L376.927 1654.62L480.712 1559.65L409.067 1667.81L390.318 1740.02Z" fill="#484858"/>
<path d="M283.185 1742.34L315.995 1840.6L376.927 1654.62L314.655 1617.69L291.22 1579.94L283.185 1742.34Z" fill="#2F2F39"/>
<path fill-rule="evenodd" clip-rule="evenodd" d="M853.669 1698.15L794.784 1883.47L829.524 1972.46L890.497 1923.7L868.024 1883.47L853.669 1698.15Z" fill="black"/>
<path d="M676.024 1969.96L730.524 1972.46H829.524L890.497 1923.7L817.231 1942.96L676.024 1969.96Z" fill="black"/>
<path d="M1199.17 1257.6H1031.11L1064.96 1470.8H1183.77L1437.55 1492.38L1655.83 1257.6L1649.8 1254.96L1519.9 1257.6H1199.17Z" fill="#484858"/>
<path fill-rule="evenodd" clip-rule="evenodd" d="M890.497 1923.7L927.324 1970.46L999.638 1896.66L1037.14 1795.76L1041.15 1684.3L853.669 1698.15L868.024 1883.47L890.497 1923.7Z" fill="#2F2F39"/>
<path d="M999.638 2014.31V1955.49V1896.66L927.324 1970.46L999.638 2014.31Z" fill="#1C1C21"/>
<path d="M2068.96 2004.82L2369.6 1942.83L2324.07 1904.39L2068.96 2004.82Z" fill="black"/>
<path fill-rule="evenodd" clip-rule="evenodd" d="M1274.84 1987.67L999.638 2014.31L1220.52 1856.46L1041.15 1684.3L1436.51 1946.71L1274.84 1987.67Z" fill="#2F2F39"/>
<path d="M1437.55 2002.18V1950.08L1436.51 1946.71L1274.84 1987.67L1437.55 2002.18Z" fill="black"/>
<path d="M1721.45 1723.21L1941.41 1812.57L2303.99 1852.47L1721.45 1723.21Z" fill="#1C1C21"/>
<path d="M2161.36 1901.94H1899.56L1878.56 1950.08L1854.7 2004.82H1961.83H2068.96L2324.07 1904.39L2303.99 1887.43V1852.47L1941.41 1812.57L2161.36 1901.94Z" fill="#1C1C21"/>
<path fill-rule="evenodd" clip-rule="evenodd" d="M1596.91 1873.22L1358.02 1676.96L1596.91 1795.76L1437.55 1492.38H1685.29L1715.35 1714.87L1718.4 1719.04L1596.91 1873.22Z" fill="#1C1C21"/>
<path d="M1634.02 1920.46L1724.8 1840.41L1715.35 1714.87L1718.4 1719.04L1596.91 1873.22L1634.02 1920.46Z" fill="black"/>
<path fill-rule="evenodd" clip-rule="evenodd" d="M1685.29 1492.38L1941.41 1405.33L1973.21 1544.48L1720.56 1717.56L1718.4 1719.04L1685.29 1492.38Z" fill="#484858"/>
<path d="M2303.99 1852.47V1681.05L2244.87 1544.48L2238.37 1529.98L1973.21 1544.48L2303.99 1852.47Z" fill="#1C1C21"/>
<path fill-rule="evenodd" clip-rule="evenodd" d="M1655.83 1257.6H1654.92L1649.8 1254.96L1655.83 1257.6ZM1183.77 1470.8L1437.55 1492.38L1596.91 1795.76L1358.02 1676.96L1436.51 1946.71L1041.15 1684.3L1064.96 1470.8H1183.77Z" fill="#2F2F39"/>
<path fill-rule="evenodd" clip-rule="evenodd" d="M1685.29 1492.38L1720.56 1717.56L1718.4 1719.04L1685.29 1492.38ZM1720.56 1717.56L1721.45 1723.21L2303.99 1852.47L1973.21 1544.48L1720.56 1717.56ZM1649.8 1254.96L1654.92 1257.6H1655.83H1519.9L1649.8 1254.96Z" fill="#2F2F39"/>
<path d="M2003.34 1336.74L1655.83 1257.6H1654.92L1437.55 1492.38H1685.29L1941.41 1405.33L2003.34 1336.74Z" fill="#2F2F39"/>
<path d="M315.325 1856.43L189.444 1925.02H60.2141L8.65625 1991.63L60.2141 2026.58H251.045L315.325 1979.1H389.649M315.325 1856.43L283.185 1744.32L289.881 1579.94L463.303 1489.75L532.939 1512.17L1031.11 1254.96H1657.17L2004.01 1334.76L2239.71 1528L2305.99 1677.05L2465.35 1787.18H2749.93L2897.24 1849.84L2660.87 1924.36H2441.25L2308.67 1859.73L2305.99 1888.75L2367.6 1940.19L2068.29 2004.82H1852.69L1875.79 1953.05M315.325 1856.43L400.024 1658.96M1875.79 1953.05L1898.89 1901.28H2161.36L1719.44 1723.87L1685.96 1495.02L1942.41 1401.37M1875.79 1953.05L1633.06 1917.77L1437.55 1947.44M1437.55 1947.44V2004.82L928.663 2042.41L826.886 2083.96H726.449H626.011L621.324 2054.28M1437.55 1947.44L1352.51 1678.36M621.324 2054.28L588.515 2074.73H421.119L389.649 2054.28V1979.1M621.324 2054.28L636.725 2004.82L674.221 1967.89H826.886L865.052 1928.98L868.4 1882.81M389.649 1979.1L361.526 1837.31L400.024 1658.96M868.4 1882.81L928.663 1967.89L995.621 1899.96M868.4 1882.81L855.009 1698.81L810.816 1646.05M1041.82 1677.05V1797.74L995.621 1899.96M1041.82 1677.05L1209.22 1853.13L995.621 1899.96M1041.82 1677.05L960.133 1528L865.052 1512.17M400.024 1658.96L480.042 1557.67" stroke="black" stroke-width="12"/>
</svg>
