<svg width="1134" height="280" viewBox="0 0 1134 280" fill="none" xmlns="http://www.w3.org/2000/svg">
<path d="M34.8633 208.2V81.6H90.2633C101.33 81.6 110.597 82.5333 118.063 84.4C125.53 86.1333 131.53 89.2667 136.063 93.8C140.597 98.3333 143.863 104.667 145.863 112.8C147.863 120.8 148.863 131.133 148.863 143.8C148.863 157 147.863 167.8 145.863 176.2C143.863 184.6 140.597 191.133 136.063 195.8C131.53 200.467 125.53 203.733 118.063 205.6C110.597 207.333 101.33 208.2 90.2633 208.2H34.8633ZM85.6633 108.6H66.8633V181.2H85.6633C93.3966 181.2 99.4633 180.333 103.863 178.6C108.397 176.867 111.597 173.333 113.463 168C115.463 162.667 116.463 154.6 116.463 143.8C116.463 133.533 115.463 125.933 113.463 121C111.597 115.933 108.397 112.6 103.863 111C99.4633 109.4 93.3966 108.6 85.6633 108.6ZM180.848 144.8C180.848 128.667 182.648 115.867 186.248 106.4C189.981 96.9333 196.314 90.1333 205.248 86C214.314 81.8667 226.914 79.8 243.048 79.8C255.181 79.8 265.248 80.9333 273.248 83.2C281.248 85.4667 287.581 89.1333 292.248 94.2C296.914 99.2667 300.181 106 302.048 114.4C304.048 122.667 305.048 132.8 305.048 144.8C305.048 156.933 304.048 167.2 302.048 175.6C300.181 183.867 296.914 190.533 292.248 195.6C287.581 200.667 281.248 204.333 273.248 206.6C265.248 208.867 255.181 210 243.048 210C230.914 210 220.848 208.867 212.848 206.6C204.848 204.333 198.514 200.667 193.848 195.6C189.181 190.533 185.848 183.867 183.848 175.6C181.848 167.2 180.848 156.933 180.848 144.8ZM243.048 182C251.581 182 257.981 180.933 262.248 178.8C266.514 176.667 269.381 172.933 270.848 167.6C272.314 162.133 273.048 154.533 273.048 144.8C273.048 135.2 272.314 127.733 270.848 122.4C269.381 117.067 266.514 113.333 262.248 111.2C257.981 108.933 251.581 107.8 243.048 107.8C234.648 107.8 228.248 108.933 223.848 111.2C219.581 113.333 216.648 117.067 215.048 122.4C213.581 127.733 212.848 135.2 212.848 144.8C212.848 154.533 213.581 162.133 215.048 167.6C216.648 172.933 219.581 176.667 223.848 178.8C228.248 180.933 234.648 182 243.048 182ZM422.082 170.8C422.082 166.4 422.282 162.4 422.682 158.8L422.282 158.2C418.549 158.733 414.482 159.133 410.082 159.4C405.682 159.533 401.615 159.533 397.882 159.4V133.4L450.082 133.2V201.2C443.949 204 436.949 206.2 429.082 207.8C421.349 209.267 411.482 210 399.482 210C383.482 210 370.949 207.867 361.882 203.6C352.815 199.2 346.415 192.2 342.682 182.6C338.949 172.867 337.082 159.933 337.082 143.8C337.082 130.733 338.549 120 341.482 111.6C344.549 103.2 348.949 96.7333 354.682 92.2C360.549 87.5333 367.682 84.3333 376.082 82.6C384.482 80.7333 394.082 79.8 404.882 79.8C411.282 79.8 417.682 80.0667 424.082 80.6C430.615 81.1333 437.082 82.1333 443.482 83.6V110L442.882 110.4C437.282 109.067 431.682 108.133 426.082 107.6C420.615 107.067 415.082 106.8 409.482 106.8C401.349 106.8 394.215 107.667 388.082 109.4C382.082 111 377.415 114.4 374.082 119.6C370.749 124.8 369.082 132.867 369.082 143.8C369.082 154.6 369.949 162.867 371.682 168.6C373.549 174.2 376.949 178.067 381.882 180.2C386.949 182.2 394.149 183.2 403.482 183.2C404.682 183.2 406.549 183.2 409.082 183.2C411.615 183.067 414.149 182.933 416.682 182.8C419.215 182.667 421.015 182.467 422.082 182.2V170.8Z" fill="#2F2F39"/>
<path d="M34.8633 208.2H30.8633V212.2H34.8633V208.2ZM34.8633 81.6V77.6H30.8633V81.6H34.8633ZM118.063 84.4L117.093 88.2806L117.126 88.2888L117.159 88.2964L118.063 84.4ZM136.063 93.8L138.892 90.9716L138.892 90.9716L136.063 93.8ZM145.863 112.8L141.979 113.755L141.981 113.763L141.983 113.77L145.863 112.8ZM145.863 176.2L141.972 175.274L141.972 175.274L145.863 176.2ZM136.063 195.8L138.932 198.587L138.932 198.587L136.063 195.8ZM118.063 205.6L118.968 209.496L119.001 209.489L119.033 209.481L118.063 205.6ZM66.8633 108.6V104.6H62.8633V108.6H66.8633ZM66.8633 181.2H62.8633V185.2H66.8633V181.2ZM103.863 178.6L102.435 174.864L102.416 174.871L102.397 174.878L103.863 178.6ZM113.463 168L109.718 166.596L109.702 166.637L109.688 166.679L113.463 168ZM113.463 121L109.71 122.383L109.732 122.443L109.756 122.503L113.463 121ZM103.863 111L102.496 114.759L102.514 114.766L102.532 114.772L103.863 111ZM34.8633 208.2H38.8633V81.6H34.8633H30.8633V208.2H34.8633ZM34.8633 81.6V85.6H90.2633V81.6V77.6H34.8633V81.6ZM90.2633 81.6V85.6C101.132 85.6 110.049 86.5194 117.093 88.2806L118.063 84.4L119.033 80.5194C111.145 78.5472 101.528 77.6 90.2633 77.6V81.6ZM118.063 84.4L117.159 88.2964C124.041 89.894 129.326 92.7194 133.235 96.6284L136.063 93.8L138.892 90.9716C133.734 85.8139 127.019 82.3727 118.968 80.5036L118.063 84.4ZM136.063 93.8L133.235 96.6284C137.116 100.51 140.101 106.118 141.979 113.755L145.863 112.8L149.748 111.845C147.625 103.215 144.077 96.1567 138.892 90.9716L136.063 93.8ZM145.863 112.8L141.983 113.77C143.873 121.332 144.863 131.306 144.863 143.8H148.863H152.863C152.863 130.961 151.853 120.268 149.744 111.83L145.863 112.8ZM148.863 143.8H144.863C144.863 156.834 143.872 167.292 141.972 175.274L145.863 176.2L149.755 177.126C151.854 168.308 152.863 157.166 152.863 143.8H148.863ZM145.863 176.2L141.972 175.274C140.086 183.195 137.087 189.006 133.194 193.013L136.063 195.8L138.932 198.587C144.106 193.261 147.641 186.005 149.755 177.126L145.863 176.2ZM136.063 195.8L133.194 193.013C129.268 197.054 123.971 200 117.093 201.719L118.063 205.6L119.033 209.481C127.089 207.467 133.792 203.879 138.932 198.587L136.063 195.8ZM118.063 205.6L117.159 201.704C110.088 203.345 101.147 204.2 90.2633 204.2V208.2V212.2C101.513 212.2 111.106 211.322 118.968 209.496L118.063 205.6ZM90.2633 208.2V204.2H34.8633V208.2V212.2H90.2633V208.2ZM85.6633 108.6V104.6H66.8633V108.6V112.6H85.6633V108.6ZM66.8633 108.6H62.8633V181.2H66.8633H70.8633V108.6H66.8633ZM66.8633 181.2V185.2H85.6633V181.2V177.2H66.8633V181.2ZM85.6633 181.2V185.2C93.6203 185.2 100.259 184.319 105.329 182.322L103.863 178.6L102.397 174.878C98.6672 176.348 93.1729 177.2 85.6633 177.2V181.2ZM103.863 178.6L105.292 182.336C111.111 180.111 115.054 175.563 117.239 169.321L113.463 168L109.688 166.679C108.139 171.104 105.683 173.622 102.435 174.864L103.863 178.6ZM113.463 168L117.209 169.404C119.467 163.382 120.463 154.729 120.463 143.8H116.463H112.463C112.463 154.471 111.459 161.952 109.718 166.596L113.463 168ZM116.463 143.8H120.463C120.463 133.407 119.47 125.169 117.17 119.497L113.463 121L109.756 122.503C111.457 126.697 112.463 133.66 112.463 143.8H116.463ZM113.463 121L117.217 119.617C114.996 113.588 110.998 109.276 105.195 107.228L103.863 111L102.532 114.772C105.796 115.924 108.198 118.278 109.71 122.383L113.463 121ZM103.863 111L105.23 107.241C100.199 105.411 93.5998 104.6 85.6633 104.6V108.6V112.6C93.1935 112.6 98.7276 113.389 102.496 114.759L103.863 111ZM186.248 106.4L182.527 104.933L182.518 104.955L182.509 104.978L186.248 106.4ZM205.248 86L203.588 82.3604L203.578 82.365L203.568 82.3697L205.248 86ZM273.248 83.2L272.157 87.0485L272.157 87.0485L273.248 83.2ZM292.248 94.2L289.305 96.9099L289.305 96.9099L292.248 94.2ZM302.048 114.4L298.143 115.268L298.151 115.304L298.16 115.341L302.048 114.4ZM302.048 175.6L298.156 174.674L298.151 174.696L298.146 174.719L302.048 175.6ZM292.248 195.6L289.305 192.89L289.305 192.89L292.248 195.6ZM212.848 206.6L211.757 210.449L211.757 210.449L212.848 206.6ZM193.848 195.6L196.79 192.89L196.79 192.89L193.848 195.6ZM183.848 175.6L179.956 176.526L179.958 176.534L179.96 176.541L183.848 175.6ZM270.848 167.6L274.704 168.661L274.708 168.649L274.711 168.637L270.848 167.6ZM270.848 122.4L266.991 123.461L266.991 123.461L270.848 122.4ZM262.248 111.2L260.371 114.732L260.415 114.756L260.459 114.778L262.248 111.2ZM223.848 111.2L225.637 114.778L225.658 114.767L225.679 114.756L223.848 111.2ZM215.048 122.4L211.216 121.251L211.203 121.295L211.191 121.339L215.048 122.4ZM215.048 167.6L211.184 168.637L211.199 168.693L211.216 168.749L215.048 167.6ZM223.848 178.8L222.059 182.378L222.081 182.389L222.103 182.399L223.848 178.8ZM180.848 144.8H184.848C184.848 128.899 186.631 116.646 189.986 107.822L186.248 106.4L182.509 104.978C178.665 115.087 176.848 128.434 176.848 144.8H180.848ZM186.248 106.4L189.969 107.867C193.339 99.3214 198.962 93.3159 206.927 89.6302L205.248 86L203.568 82.3697C193.667 86.9508 186.623 94.5452 182.527 104.933L186.248 106.4ZM205.248 86L206.907 89.6396C215.228 85.8461 227.174 83.8 243.048 83.8V79.8V75.8C226.655 75.8 213.401 77.8872 203.588 82.3604L205.248 86ZM243.048 79.8V83.8C254.965 83.8 264.634 84.9169 272.157 87.0485L273.248 83.2L274.338 79.3515C265.862 76.9498 255.397 75.8 243.048 75.8V79.8ZM273.248 83.2L272.157 87.0485C279.595 89.1557 285.234 92.4893 289.305 96.9099L292.248 94.2L295.19 91.4901C289.928 85.7773 282.901 81.7776 274.338 79.3515L273.248 83.2ZM292.248 94.2L289.305 96.9099C293.389 101.344 296.391 107.386 298.143 115.268L302.048 114.4L305.952 113.532C303.97 104.614 300.439 97.1896 295.19 91.4901L292.248 94.2ZM302.048 114.4L298.16 115.341C300.062 123.202 301.048 132.998 301.048 144.8H305.048H309.048C309.048 132.602 308.033 122.131 305.935 113.459L302.048 114.4ZM305.048 144.8H301.048C301.048 156.736 300.062 166.672 298.156 174.674L302.048 175.6L305.939 176.526C308.034 167.728 309.048 157.13 309.048 144.8H305.048ZM302.048 175.6L298.146 174.719C296.398 182.459 293.4 188.445 289.305 192.89L292.248 195.6L295.19 198.31C300.429 192.622 303.964 185.275 305.949 176.481L302.048 175.6ZM292.248 195.6L289.305 192.89C285.234 197.311 279.595 200.644 272.157 202.751L273.248 206.6L274.338 210.449C282.901 208.022 289.928 204.023 295.19 198.31L292.248 195.6ZM273.248 206.6L272.157 202.751C264.634 204.883 254.965 206 243.048 206V210V214C255.397 214 265.862 212.85 274.338 210.449L273.248 206.6ZM243.048 210V206C231.13 206 221.462 204.883 213.938 202.751L212.848 206.6L211.757 210.449C220.234 212.85 230.698 214 243.048 214V210ZM212.848 206.6L213.938 202.751C206.501 200.644 200.861 197.311 196.79 192.89L193.848 195.6L190.905 198.31C196.167 204.023 203.195 208.022 211.757 210.449L212.848 206.6ZM193.848 195.6L196.79 192.89C192.68 188.428 189.613 182.419 187.735 174.659L183.848 175.6L179.96 176.541C182.083 185.314 185.682 192.639 190.905 198.31L193.848 195.6ZM183.848 175.6L187.739 174.674C185.834 166.672 184.848 156.736 184.848 144.8H180.848H176.848C176.848 157.13 177.862 167.728 179.956 176.526L183.848 175.6ZM243.048 182V186C251.785 186 258.934 184.929 264.037 182.378L262.248 178.8L260.459 175.222C257.028 176.938 251.377 178 243.048 178V182ZM262.248 178.8L264.037 182.378C269.484 179.654 272.99 174.896 274.704 168.661L270.848 167.6L266.991 166.539C265.772 170.97 263.545 173.679 260.459 175.222L262.248 178.8ZM270.848 167.6L274.711 168.637C276.311 162.675 277.048 154.671 277.048 144.8H273.048H269.048C269.048 154.396 268.318 161.592 266.984 166.563L270.848 167.6ZM273.048 144.8H277.048C277.048 135.063 276.311 127.181 274.704 121.339L270.848 122.4L266.991 123.461C268.318 128.285 269.048 135.337 269.048 144.8H273.048ZM270.848 122.4L274.704 121.339C272.99 115.104 269.484 110.346 264.037 107.622L262.248 111.2L260.459 114.778C263.545 116.321 265.772 119.03 266.991 123.461L270.848 122.4ZM262.248 111.2L264.124 107.668C258.992 104.941 251.805 103.8 243.048 103.8V107.8V111.8C251.357 111.8 256.97 112.926 260.371 114.732L262.248 111.2ZM243.048 107.8V103.8C234.398 103.8 227.248 104.949 222.016 107.644L223.848 111.2L225.679 114.756C229.247 112.918 234.897 111.8 243.048 111.8V107.8ZM223.848 111.2L222.059 107.622C216.639 110.332 213.075 115.053 211.216 121.251L215.048 122.4L218.879 123.549C220.22 119.08 222.523 116.335 225.637 114.778L223.848 111.2ZM215.048 122.4L211.191 121.339C209.584 127.181 208.848 135.063 208.848 144.8H212.848H216.848C216.848 135.337 217.578 128.285 218.904 123.461L215.048 122.4ZM212.848 144.8H208.848C208.848 154.671 209.585 162.675 211.184 168.637L215.048 167.6L218.911 166.563C217.577 161.592 216.848 154.396 216.848 144.8H212.848ZM215.048 167.6L211.216 168.749C213.075 174.947 216.639 179.668 222.059 182.378L223.848 178.8L225.637 175.222C222.523 173.665 220.22 170.92 218.879 166.451L215.048 167.6ZM223.848 178.8L222.103 182.399C227.305 184.922 234.418 186 243.048 186V182V178C234.877 178 229.19 176.945 225.593 175.201L223.848 178.8ZM422.682 158.8L426.658 159.242L426.818 157.794L426.01 156.581L422.682 158.8ZM422.282 158.2L425.61 155.981L424.212 153.884L421.716 154.24L422.282 158.2ZM410.082 159.4L410.203 163.398L410.264 163.396L410.324 163.393L410.082 159.4ZM397.882 159.4H393.882V163.26L397.739 163.397L397.882 159.4ZM397.882 133.4L397.867 129.4L393.882 129.415V133.4H397.882ZM450.082 133.2H454.082V129.185L450.067 129.2L450.082 133.2ZM450.082 201.2L451.743 204.839L454.082 203.771V201.2H450.082ZM429.082 207.8L429.827 211.73L429.853 211.725L429.879 211.72L429.082 207.8ZM361.882 203.6L360.136 207.199L360.157 207.209L360.179 207.219L361.882 203.6ZM342.682 182.6L338.947 184.032L338.951 184.041L338.954 184.05L342.682 182.6ZM341.482 111.6L337.725 110.228L337.715 110.255L337.706 110.281L341.482 111.6ZM354.682 92.2L357.163 95.3377L357.172 95.3304L354.682 92.2ZM376.082 82.6L376.89 86.5175L376.92 86.5113L376.95 86.5047L376.082 82.6ZM424.082 80.6L423.75 84.5862L423.757 84.5867L424.082 80.6ZM443.482 83.6H447.482V80.413L444.376 79.7011L443.482 83.6ZM443.482 110L445.701 113.328L447.482 112.141V110H443.482ZM442.882 110.4L441.956 114.291L443.651 114.695L445.101 113.728L442.882 110.4ZM426.082 107.6L425.694 111.581L425.703 111.582L426.082 107.6ZM388.082 109.4L389.113 113.265L389.141 113.257L389.17 113.249L388.082 109.4ZM374.082 119.6L377.45 121.759L377.45 121.759L374.082 119.6ZM371.682 168.6L367.853 169.758L367.869 169.811L367.887 169.865L371.682 168.6ZM381.882 180.2L380.294 183.871L380.353 183.897L380.413 183.921L381.882 180.2ZM409.082 183.2V187.2H409.187L409.292 187.194L409.082 183.2ZM422.082 182.2L423.052 186.081L426.082 185.323V182.2H422.082ZM422.082 170.8H426.082C426.082 166.518 426.277 162.668 426.658 159.242L422.682 158.8L418.707 158.358C418.287 162.132 418.082 166.282 418.082 170.8H422.082ZM422.682 158.8L426.01 156.581L425.61 155.981L422.282 158.2L418.954 160.419L419.354 161.019L422.682 158.8ZM422.282 158.2L421.716 154.24C418.107 154.756 414.149 155.146 409.84 155.407L410.082 159.4L410.324 163.393C414.815 163.121 418.991 162.711 422.848 162.16L422.282 158.2ZM410.082 159.4L409.961 155.402C405.634 155.533 401.656 155.532 398.025 155.403L397.882 159.4L397.739 163.397C401.574 163.534 405.73 163.534 410.203 163.398L410.082 159.4ZM397.882 159.4H401.882V133.4H397.882H393.882V159.4H397.882ZM397.882 133.4L397.897 137.4L450.097 137.2L450.082 133.2L450.067 129.2L397.867 129.4L397.882 133.4ZM450.082 133.2H446.082V201.2H450.082H454.082V133.2H450.082ZM450.082 201.2L448.421 197.561C442.61 200.214 435.908 202.33 428.285 203.88L429.082 207.8L429.879 211.72C437.989 210.07 445.287 207.786 451.743 204.839L450.082 201.2ZM429.082 207.8L428.337 203.87C420.941 205.273 411.347 206 399.482 206V210V214C411.617 214 421.756 213.261 429.827 211.73L429.082 207.8ZM399.482 210V206C383.758 206 371.895 203.891 363.585 199.981L361.882 203.6L360.179 207.219C370.003 211.842 383.206 214 399.482 214V210ZM361.882 203.6L363.628 200.001C355.492 196.053 349.787 189.833 346.41 181.15L342.682 182.6L338.954 184.05C343.044 194.567 350.139 202.347 360.136 207.199L361.882 203.6ZM342.682 182.6L346.417 181.168C342.928 172.071 341.082 159.683 341.082 143.8H337.082H333.082C333.082 160.184 334.97 173.662 338.947 184.032L342.682 182.6ZM337.082 143.8H341.082C341.082 130.992 342.525 120.746 345.258 112.919L341.482 111.6L337.706 110.281C334.572 119.254 333.082 130.475 333.082 143.8H337.082ZM341.482 111.6L345.239 112.972C348.109 105.112 352.128 99.319 357.163 95.3377L354.682 92.2L352.201 89.0623C345.77 94.1477 340.988 101.288 337.725 110.228L341.482 111.6ZM354.682 92.2L357.172 95.3304C362.481 91.1073 369.016 88.1424 376.89 86.5175L376.082 82.6L375.274 78.6825C366.348 80.5243 358.616 83.9594 352.192 89.0696L354.682 92.2ZM376.082 82.6L376.95 86.5047C385.004 84.715 394.303 83.8 404.882 83.8V79.8V75.8C393.861 75.8 383.961 76.7516 375.214 78.6952L376.082 82.6ZM404.882 79.8V83.8C411.171 83.8 417.46 84.062 423.75 84.5862L424.082 80.6L424.414 76.6138C417.904 76.0713 411.393 75.8 404.882 75.8V79.8ZM424.082 80.6L423.757 84.5867C430.098 85.1044 436.375 86.075 442.589 87.4989L443.482 83.6L444.376 79.7011C437.789 78.1916 431.132 77.1622 424.407 76.6133L424.082 80.6ZM443.482 83.6H439.482V110H443.482H447.482V83.6H443.482ZM443.482 110L441.263 106.672L440.663 107.072L442.882 110.4L445.101 113.728L445.701 113.328L443.482 110ZM442.882 110.4L443.809 106.509C438.033 105.134 432.25 104.169 426.461 103.618L426.082 107.6L425.703 111.582C431.114 112.097 436.531 113 441.956 114.291L442.882 110.4ZM426.082 107.6L426.47 103.619C420.872 103.073 415.209 102.8 409.482 102.8V106.8V110.8C414.955 110.8 420.359 111.061 425.694 111.581L426.082 107.6ZM409.482 106.8V102.8C401.077 102.8 393.563 103.694 386.994 105.551L388.082 109.4L389.17 113.249C394.867 111.639 401.621 110.8 409.482 110.8V106.8ZM388.082 109.4L387.051 105.535C380.093 107.391 374.59 111.396 370.715 117.441L374.082 119.6L377.45 121.759C380.241 117.404 384.072 114.609 389.113 113.265L388.082 109.4ZM374.082 119.6L370.715 117.441C366.759 123.613 365.082 132.615 365.082 143.8H369.082H373.082C373.082 133.118 374.739 125.987 377.45 121.759L374.082 119.6ZM369.082 143.8H365.082C365.082 154.731 365.95 163.462 367.853 169.758L371.682 168.6L375.511 167.442C373.948 162.272 373.082 154.469 373.082 143.8H369.082ZM371.682 168.6L367.887 169.865C370.074 176.426 374.207 181.239 380.294 183.871L381.882 180.2L383.47 176.529C379.69 174.894 377.023 171.974 375.477 167.335L371.682 168.6ZM381.882 180.2L380.413 183.921C386.167 186.192 393.953 187.2 403.482 187.2V183.2V179.2C394.345 179.2 387.731 178.208 383.351 176.479L381.882 180.2ZM403.482 183.2V187.2C403.484 187.2 403.487 187.2 403.489 187.2C403.491 187.2 403.494 187.2 403.496 187.2C403.498 187.2 403.501 187.2 403.503 187.2C403.506 187.2 403.508 187.2 403.51 187.2C403.513 187.2 403.515 187.2 403.517 187.2C403.52 187.2 403.522 187.2 403.524 187.2C403.527 187.2 403.529 187.2 403.532 187.2C403.534 187.2 403.536 187.2 403.539 187.2C403.541 187.2 403.544 187.2 403.546 187.2C403.548 187.2 403.551 187.2 403.553 187.2C403.556 187.2 403.558 187.2 403.56 187.2C403.563 187.2 403.565 187.2 403.568 187.2C403.57 187.2 403.572 187.2 403.575 187.2C403.577 187.2 403.58 187.2 403.582 187.2C403.584 187.2 403.587 187.2 403.589 187.2C403.592 187.2 403.594 187.2 403.596 187.2C403.599 187.2 403.601 187.2 403.604 187.2C403.606 187.2 403.609 187.2 403.611 187.2C403.614 187.2 403.616 187.2 403.618 187.2C403.621 187.2 403.623 187.2 403.626 187.2C403.628 187.2 403.631 187.2 403.633 187.2C403.636 187.2 403.638 187.2 403.64 187.2C403.643 187.2 403.645 187.2 403.648 187.2C403.65 187.2 403.653 187.2 403.655 187.2C403.658 187.2 403.66 187.2 403.663 187.2C403.665 187.2 403.668 187.2 403.67 187.2C403.672 187.2 403.675 187.2 403.677 187.2C403.68 187.2 403.682 187.2 403.685 187.2C403.687 187.2 403.69 187.2 403.692 187.2C403.695 187.2 403.697 187.2 403.7 187.2C403.702 187.2 403.705 187.2 403.707 187.2C403.71 187.2 403.712 187.2 403.715 187.2C403.717 187.2 403.72 187.2 403.722 187.2C403.725 187.2 403.727 187.2 403.73 187.2C403.732 187.2 403.735 187.2 403.737 187.2C403.74 187.2 403.743 187.2 403.745 187.2C403.748 187.2 403.75 187.2 403.753 187.2C403.755 187.2 403.758 187.2 403.76 187.2C403.763 187.2 403.765 187.2 403.768 187.2C403.77 187.2 403.773 187.2 403.775 187.2C403.778 187.2 403.781 187.2 403.783 187.2C403.786 187.2 403.788 187.2 403.791 187.2C403.793 187.2 403.796 187.2 403.798 187.2C403.801 187.2 403.804 187.2 403.806 187.2C403.809 187.2 403.811 187.2 403.814 187.2C403.816 187.2 403.819 187.2 403.822 187.2C403.824 187.2 403.827 187.2 403.829 187.2C403.832 187.2 403.835 187.2 403.837 187.2C403.84 187.2 403.842 187.2 403.845 187.2C403.847 187.2 403.85 187.2 403.853 187.2C403.855 187.2 403.858 187.2 403.86 187.2C403.863 187.2 403.866 187.2 403.868 187.2C403.871 187.2 403.874 187.2 403.876 187.2C403.879 187.2 403.881 187.2 403.884 187.2C403.887 187.2 403.889 187.2 403.892 187.2C403.894 187.2 403.897 187.2 403.9 187.2C403.902 187.2 403.905 187.2 403.908 187.2C403.91 187.2 403.913 187.2 403.916 187.2C403.918 187.2 403.921 187.2 403.923 187.2C403.926 187.2 403.929 187.2 403.931 187.2C403.934 187.2 403.937 187.2 403.939 187.2C403.942 187.2 403.945 187.2 403.947 187.2C403.95 187.2 403.953 187.2 403.955 187.2C403.958 187.2 403.961 187.2 403.963 187.2C403.966 187.2 403.969 187.2 403.971 187.2C403.974 187.2 403.977 187.2 403.979 187.2C403.982 187.2 403.985 187.2 403.987 187.2C403.99 187.2 403.993 187.2 403.995 187.2C403.998 187.2 404.001 187.2 404.004 187.2C404.006 187.2 404.009 187.2 404.012 187.2C404.014 187.2 404.017 187.2 404.02 187.2C404.022 187.2 404.025 187.2 404.028 187.2C404.031 187.2 404.033 187.2 404.036 187.2C404.039 187.2 404.041 187.2 404.044 187.2C404.047 187.2 404.05 187.2 404.052 187.2C404.055 187.2 404.058 187.2 404.06 187.2C404.063 187.2 404.066 187.2 404.069 187.2C404.071 187.2 404.074 187.2 404.077 187.2C404.08 187.2 404.082 187.2 404.085 187.2C404.088 187.2 404.091 187.2 404.093 187.2C404.096 187.2 404.099 187.2 404.102 187.2C404.104 187.2 404.107 187.2 404.11 187.2C404.113 187.2 404.115 187.2 404.118 187.2C404.121 187.2 404.124 187.2 404.126 187.2C404.129 187.2 404.132 187.2 404.135 187.2C404.138 187.2 404.14 187.2 404.143 187.2C404.146 187.2 404.149 187.2 404.151 187.2C404.154 187.2 404.157 187.2 404.16 187.2C404.163 187.2 404.165 187.2 404.168 187.2C404.171 187.2 404.174 187.2 404.177 187.2C404.179 187.2 404.182 187.2 404.185 187.2C404.188 187.2 404.191 187.2 404.193 187.2C404.196 187.2 404.199 187.2 404.202 187.2C404.205 187.2 404.208 187.2 404.21 187.2C404.213 187.2 404.216 187.2 404.219 187.2C404.222 187.2 404.225 187.2 404.227 187.2C404.23 187.2 404.233 187.2 404.236 187.2C404.239 187.2 404.242 187.2 404.244 187.2C404.247 187.2 404.25 187.2 404.253 187.2C404.256 187.2 404.259 187.2 404.261 187.2C404.264 187.2 404.267 187.2 404.27 187.2C404.273 187.2 404.276 187.2 404.279 187.2C404.281 187.2 404.284 187.2 404.287 187.2C404.29 187.2 404.293 187.2 404.296 187.2C404.299 187.2 404.302 187.2 404.304 187.2C404.307 187.2 404.31 187.2 404.313 187.2C404.316 187.2 404.319 187.2 404.322 187.2C404.325 187.2 404.328 187.2 404.33 187.2C404.333 187.2 404.336 187.2 404.339 187.2C404.342 187.2 404.345 187.2 404.348 187.2C404.351 187.2 404.354 187.2 404.357 187.2C404.359 187.2 404.362 187.2 404.365 187.2C404.368 187.2 404.371 187.2 404.374 187.2C404.377 187.2 404.38 187.2 404.383 187.2C404.386 187.2 404.389 187.2 404.392 187.2C404.394 187.2 404.397 187.2 404.4 187.2C404.403 187.2 404.406 187.2 404.409 187.2C404.412 187.2 404.415 187.2 404.418 187.2C404.421 187.2 404.424 187.2 404.427 187.2C404.43 187.2 404.433 187.2 404.436 187.2C404.439 187.2 404.442 187.2 404.445 187.2C404.447 187.2 404.45 187.2 404.453 187.2C404.456 187.2 404.459 187.2 404.462 187.2C404.465 187.2 404.468 187.2 404.471 187.2C404.474 187.2 404.477 187.2 404.48 187.2C404.483 187.2 404.486 187.2 404.489 187.2C404.492 187.2 404.495 187.2 404.498 187.2C404.501 187.2 404.504 187.2 404.507 187.2C404.51 187.2 404.513 187.2 404.516 187.2C404.519 187.2 404.522 187.2 404.525 187.2C404.528 187.2 404.531 187.2 404.534 187.2C404.537 187.2 404.54 187.2 404.543 187.2C404.546 187.2 404.549 187.2 404.552 187.2C404.555 187.2 404.558 187.2 404.561 187.2C404.564 187.2 404.567 187.2 404.57 187.2C404.573 187.2 404.576 187.2 404.579 187.2C404.582 187.2 404.585 187.2 404.589 187.2C404.592 187.2 404.595 187.2 404.598 187.2C404.601 187.2 404.604 187.2 404.607 187.2C404.61 187.2 404.613 187.2 404.616 187.2C404.619 187.2 404.622 187.2 404.625 187.2C404.628 187.2 404.631 187.2 404.634 187.2C404.637 187.2 404.64 187.2 404.644 187.2C404.647 187.2 404.65 187.2 404.653 187.2C404.656 187.2 404.659 187.2 404.662 187.2C404.665 187.2 404.668 187.2 404.671 187.2C404.674 187.2 404.677 187.2 404.68 187.2C404.684 187.2 404.687 187.2 404.69 187.2C404.693 187.2 404.696 187.2 404.699 187.2C404.702 187.2 404.705 187.2 404.708 187.2C404.711 187.2 404.715 187.2 404.718 187.2C404.721 187.2 404.724 187.2 404.727 187.2C404.73 187.2 404.733 187.2 404.736 187.2C404.74 187.2 404.743 187.2 404.746 187.2C404.749 187.2 404.752 187.2 404.755 187.2C404.758 187.2 404.761 187.2 404.765 187.2C404.768 187.2 404.771 187.2 404.774 187.2C404.777 187.2 404.78 187.2 404.783 187.2C404.787 187.2 404.79 187.2 404.793 187.2C404.796 187.2 404.799 187.2 404.802 187.2C404.806 187.2 404.809 187.2 404.812 187.2C404.815 187.2 404.818 187.2 404.821 187.2C404.824 187.2 404.828 187.2 404.831 187.2C404.834 187.2 404.837 187.2 404.84 187.2C404.844 187.2 404.847 187.2 404.85 187.2C404.853 187.2 404.856 187.2 404.859 187.2C404.863 187.2 404.866 187.2 404.869 187.2C404.872 187.2 404.875 187.2 404.879 187.2C404.882 187.2 404.885 187.2 404.888 187.2C404.891 187.2 404.895 187.2 404.898 187.2C404.901 187.2 404.904 187.2 404.907 187.2C404.911 187.2 404.914 187.2 404.917 187.2C404.92 187.2 404.924 187.2 404.927 187.2C404.93 187.2 404.933 187.2 404.936 187.2C404.94 187.2 404.943 187.2 404.946 187.2C404.949 187.2 404.953 187.2 404.956 187.2C404.959 187.2 404.962 187.2 404.966 187.2C404.969 187.2 404.972 187.2 404.975 187.2C404.979 187.2 404.982 187.2 404.985 187.2C404.988 187.2 404.992 187.2 404.995 187.2C404.998 187.2 405.001 187.2 405.005 187.2C405.008 187.2 405.011 187.2 405.014 187.2C405.018 187.2 405.021 187.2 405.024 187.2C405.028 187.2 405.031 187.2 405.034 187.2C405.037 187.2 405.041 187.2 405.044 187.2C405.047 187.2 405.051 187.2 405.054 187.2C405.057 187.2 405.06 187.2 405.064 187.2C405.067 187.2 405.07 187.2 405.074 187.2C405.077 187.2 405.08 187.2 405.083 187.2C405.087 187.2 405.09 187.2 405.093 187.2C405.097 187.2 405.1 187.2 405.103 187.2C405.107 187.2 405.11 187.2 405.113 187.2C405.117 187.2 405.12 187.2 405.123 187.2C405.127 187.2 405.13 187.2 405.133 187.2C405.137 187.2 405.14 187.2 405.143 187.2C405.147 187.2 405.15 187.2 405.153 187.2C405.157 187.2 405.16 187.2 405.163 187.2C405.167 187.2 405.17 187.2 405.173 187.2C405.177 187.2 405.18 187.2 405.183 187.2C405.187 187.2 405.19 187.2 405.193 187.2C405.197 187.2 405.2 187.2 405.204 187.2C405.207 187.2 405.21 187.2 405.214 187.2C405.217 187.2 405.22 187.2 405.224 187.2C405.227 187.2 405.231 187.2 405.234 187.2C405.237 187.2 405.241 187.2 405.244 187.2C405.247 187.2 405.251 187.2 405.254 187.2C405.258 187.2 405.261 187.2 405.264 187.2C405.268 187.2 405.271 187.2 405.275 187.2C405.278 187.2 405.281 187.2 405.285 187.2C405.288 187.2 405.292 187.2 405.295 187.2C405.298 187.2 405.302 187.2 405.305 187.2C405.309 187.2 405.312 187.2 405.316 187.2C405.319 187.2 405.322 187.2 405.326 187.2C405.329 187.2 405.333 187.2 405.336 187.2C405.34 187.2 405.343 187.2 405.346 187.2C405.35 187.2 405.353 187.2 405.357 187.2C405.36 187.2 405.364 187.2 405.367 187.2C405.371 187.2 405.374 187.2 405.377 187.2C405.381 187.2 405.384 187.2 405.388 187.2C405.391 187.2 405.395 187.2 405.398 187.2C405.402 187.2 405.405 187.2 405.409 187.2C405.412 187.2 405.416 187.2 405.419 187.2C405.422 187.2 405.426 187.2 405.429 187.2C405.433 187.2 405.436 187.2 405.44 187.2C405.443 187.2 405.447 187.2 405.45 187.2C405.454 187.2 405.457 187.2 405.461 187.2C405.464 187.2 405.468 187.2 405.471 187.2C405.475 187.2 405.478 187.2 405.482 187.2C405.485 187.2 405.489 187.2 405.492 187.2C405.496 187.2 405.499 187.2 405.503 187.2C405.506 187.2 405.51 187.2 405.513 187.2C405.517 187.2 405.52 187.2 405.524 187.2C405.527 187.2 405.531 187.2 405.535 187.2C405.538 187.2 405.542 187.2 405.545 187.2C405.549 187.2 405.552 187.2 405.556 187.2C405.559 187.2 405.563 187.2 405.566 187.2C405.57 187.2 405.573 187.2 405.577 187.2C405.581 187.2 405.584 187.2 405.588 187.2C405.591 187.2 405.595 187.2 405.598 187.2C405.602 187.2 405.605 187.2 405.609 187.2C405.613 187.2 405.616 187.2 405.62 187.2C405.623 187.2 405.627 187.2 405.63 187.2C405.634 187.2 405.638 187.2 405.641 187.2C405.645 187.2 405.648 187.2 405.652 187.2C405.655 187.2 405.659 187.2 405.663 187.2C405.666 187.2 405.67 187.2 405.673 187.2C405.677 187.2 405.681 187.2 405.684 187.2C405.688 187.2 405.691 187.2 405.695 187.2C405.699 187.2 405.702 187.2 405.706 187.2C405.709 187.2 405.713 187.2 405.717 187.2C405.72 187.2 405.724 187.2 405.728 187.2C405.731 187.2 405.735 187.2 405.738 187.2C405.742 187.2 405.746 187.2 405.749 187.2C405.753 187.2 405.757 187.2 405.76 187.2C405.764 187.2 405.767 187.2 405.771 187.2C405.775 187.2 405.778 187.2 405.782 187.2C405.786 187.2 405.789 187.2 405.793 187.2C405.797 187.2 405.8 187.2 405.804 187.2C405.808 187.2 405.811 187.2 405.815 187.2C405.819 187.2 405.822 187.2 405.826 187.2C405.83 187.2 405.833 187.2 405.837 187.2C405.841 187.2 405.844 187.2 405.848 187.2C405.852 187.2 405.855 187.2 405.859 187.2C405.863 187.2 405.866 187.2 405.87 187.2C405.874 187.2 405.877 187.2 405.881 187.2C405.885 187.2 405.888 187.2 405.892 187.2C405.896 187.2 405.9 187.2 405.903 187.2C405.907 187.2 405.911 187.2 405.914 187.2C405.918 187.2 405.922 187.2 405.926 187.2C405.929 187.2 405.933 187.2 405.937 187.2C405.94 187.2 405.944 187.2 405.948 187.2C405.952 187.2 405.955 187.2 405.959 187.2C405.963 187.2 405.966 187.2 405.97 187.2C405.974 187.2 405.978 187.2 405.981 187.2C405.985 187.2 405.989 187.2 405.993 187.2C405.996 187.2 406 187.2 406.004 187.2C406.008 187.2 406.011 187.2 406.015 187.2C406.019 187.2 406.023 187.2 406.026 187.2C406.03 187.2 406.034 187.2 406.038 187.2C406.041 187.2 406.045 187.2 406.049 187.2C406.053 187.2 406.056 187.2 406.06 187.2C406.064 187.2 406.068 187.2 406.072 187.2C406.075 187.2 406.079 187.2 406.083 187.2C406.087 187.2 406.09 187.2 406.094 187.2C406.098 187.2 406.102 187.2 406.106 187.2C406.109 187.2 406.113 187.2 406.117 187.2C406.121 187.2 406.125 187.2 406.128 187.2C406.132 187.2 406.136 187.2 406.14 187.2C406.144 187.2 406.147 187.2 406.151 187.2C406.155 187.2 406.159 187.2 406.163 187.2C406.167 187.2 406.17 187.2 406.174 187.2C406.178 187.2 406.182 187.2 406.186 187.2C406.189 187.2 406.193 187.2 406.197 187.2C406.201 187.2 406.205 187.2 406.209 187.2C406.213 187.2 406.216 187.2 406.22 187.2C406.224 187.2 406.228 187.2 406.232 187.2C406.236 187.2 406.239 187.2 406.243 187.2C406.247 187.2 406.251 187.2 406.255 187.2C406.259 187.2 406.263 187.2 406.266 187.2C406.27 187.2 406.274 187.2 406.278 187.2C406.282 187.2 406.286 187.2 406.29 187.2C406.294 187.2 406.297 187.2 406.301 187.2C406.305 187.2 406.309 187.2 406.313 187.2C406.317 187.2 406.321 187.2 406.325 187.2C406.329 187.2 406.332 187.2 406.336 187.2C406.34 187.2 406.344 187.2 406.348 187.2C406.352 187.2 406.356 187.2 406.36 187.2C406.364 187.2 406.368 187.2 406.371 187.2C406.375 187.2 406.379 187.2 406.383 187.2C406.387 187.2 406.391 187.2 406.395 187.2C406.399 187.2 406.403 187.2 406.407 187.2C406.411 187.2 406.415 187.2 406.418 187.2C406.422 187.2 406.426 187.2 406.43 187.2C406.434 187.2 406.438 187.2 406.442 187.2C406.446 187.2 406.45 187.2 406.454 187.2C406.458 187.2 406.462 187.2 406.466 187.2C406.47 187.2 406.474 187.2 406.478 187.2C406.482 187.2 406.486 187.2 406.489 187.2C406.493 187.2 406.497 187.2 406.501 187.2C406.505 187.2 406.509 187.2 406.513 187.2C406.517 187.2 406.521 187.2 406.525 187.2C406.529 187.2 406.533 187.2 406.537 187.2C406.541 187.2 406.545 187.2 406.549 187.2C406.553 187.2 406.557 187.2 406.561 187.2C406.565 187.2 406.569 187.2 406.573 187.2C406.577 187.2 406.581 187.2 406.585 187.2C406.589 187.2 406.593 187.2 406.597 187.2C406.601 187.2 406.605 187.2 406.609 187.2C406.613 187.2 406.617 187.2 406.621 187.2C406.625 187.2 406.629 187.2 406.633 187.2C406.637 187.2 406.641 187.2 406.645 187.2C406.649 187.2 406.653 187.2 406.657 187.2C406.661 187.2 406.665 187.2 406.669 187.2C406.673 187.2 406.678 187.2 406.682 187.2C406.686 187.2 406.69 187.2 406.694 187.2C406.698 187.2 406.702 187.2 406.706 187.2C406.71 187.2 406.714 187.2 406.718 187.2C406.722 187.2 406.726 187.2 406.73 187.2C406.734 187.2 406.738 187.2 406.742 187.2C406.746 187.2 406.751 187.2 406.755 187.2C406.759 187.2 406.763 187.2 406.767 187.2C406.771 187.2 406.775 187.2 406.779 187.2C406.783 187.2 406.787 187.2 406.791 187.2C406.795 187.2 406.8 187.2 406.804 187.2C406.808 187.2 406.812 187.2 406.816 187.2C406.82 187.2 406.824 187.2 406.828 187.2C406.832 187.2 406.836 187.2 406.841 187.2C406.845 187.2 406.849 187.2 406.853 187.2C406.857 187.2 406.861 187.2 406.865 187.2C406.869 187.2 406.873 187.2 406.878 187.2C406.882 187.2 406.886 187.2 406.89 187.2C406.894 187.2 406.898 187.2 406.902 187.2C406.906 187.2 406.911 187.2 406.915 187.2C406.919 187.2 406.923 187.2 406.927 187.2C406.931 187.2 406.935 187.2 406.94 187.2C406.944 187.2 406.948 187.2 406.952 187.2C406.956 187.2 406.96 187.2 406.965 187.2C406.969 187.2 406.973 187.2 406.977 187.2C406.981 187.2 406.985 187.2 406.99 187.2C406.994 187.2 406.998 187.2 407.002 187.2C407.006 187.2 407.01 187.2 407.015 187.2C407.019 187.2 407.023 187.2 407.027 187.2C407.031 187.2 407.036 187.2 407.04 187.2C407.044 187.2 407.048 187.2 407.052 187.2C407.056 187.2 407.061 187.2 407.065 187.2C407.069 187.2 407.073 187.2 407.077 187.2C407.082 187.2 407.086 187.2 407.09 187.2C407.094 187.2 407.099 187.2 407.103 187.2C407.107 187.2 407.111 187.2 407.115 187.2C407.12 187.2 407.124 187.2 407.128 187.2C407.132 187.2 407.137 187.2 407.141 187.2C407.145 187.2 407.149 187.2 407.153 187.2C407.158 187.2 407.162 187.2 407.166 187.2C407.17 187.2 407.175 187.2 407.179 187.2C407.183 187.2 407.187 187.2 407.192 187.2C407.196 187.2 407.2 187.2 407.204 187.2C407.209 187.2 407.213 187.2 407.217 187.2C407.221 187.2 407.226 187.2 407.23 187.2C407.234 187.2 407.238 187.2 407.243 187.2C407.247 187.2 407.251 187.2 407.256 187.2C407.26 187.2 407.264 187.2 407.268 187.2C407.273 187.2 407.277 187.2 407.281 187.2C407.286 187.2 407.29 187.2 407.294 187.2C407.298 187.2 407.303 187.2 407.307 187.2C407.311 187.2 407.316 187.2 407.32 187.2C407.324 187.2 407.329 187.2 407.333 187.2C407.337 187.2 407.341 187.2 407.346 187.2C407.35 187.2 407.354 187.2 407.359 187.2C407.363 187.2 407.367 187.2 407.372 187.2C407.376 187.2 407.38 187.2 407.385 187.2C407.389 187.2 407.393 187.2 407.398 187.2C407.402 187.2 407.406 187.2 407.411 187.2C407.415 187.2 407.419 187.2 407.424 187.2C407.428 187.2 407.432 187.2 407.437 187.2C407.441 187.2 407.445 187.2 407.45 187.2C407.454 187.2 407.458 187.2 407.463 187.2C407.467 187.2 407.472 187.2 407.476 187.2C407.48 187.2 407.485 187.2 407.489 187.2C407.493 187.2 407.498 187.2 407.502 187.2C407.506 187.2 407.511 187.2 407.515 187.2C407.52 187.2 407.524 187.2 407.528 187.2C407.533 187.2 407.537 187.2 407.542 187.2C407.546 187.2 407.55 187.2 407.555 187.2C407.559 187.2 407.563 187.2 407.568 187.2C407.572 187.2 407.577 187.2 407.581 187.2C407.586 187.2 407.59 187.2 407.594 187.2C407.599 187.2 407.603 187.2 407.608 187.2C407.612 187.2 407.616 187.2 407.621 187.2C407.625 187.2 407.63 187.2 407.634 187.2C407.638 187.2 407.643 187.2 407.647 187.2C407.652 187.2 407.656 187.2 407.661 187.2C407.665 187.2 407.67 187.2 407.674 187.2C407.678 187.2 407.683 187.2 407.687 187.2C407.692 187.2 407.696 187.2 407.701 187.2C407.705 187.2 407.71 187.2 407.714 187.2C407.718 187.2 407.723 187.2 407.727 187.2C407.732 187.2 407.736 187.2 407.741 187.2C407.745 187.2 407.75 187.2 407.754 187.2C407.759 187.2 407.763 187.2 407.768 187.2C407.772 187.2 407.777 187.2 407.781 187.2C407.785 187.2 407.79 187.2 407.794 187.2C407.799 187.2 407.803 187.2 407.808 187.2C407.812 187.2 407.817 187.2 407.821 187.2C407.826 187.2 407.83 187.2 407.835 187.2C407.839 187.2 407.844 187.2 407.848 187.2C407.853 187.2 407.857 187.2 407.862 187.2C407.866 187.2 407.871 187.2 407.875 187.2C407.88 187.2 407.884 187.2 407.889 187.2C407.894 187.2 407.898 187.2 407.903 187.2C407.907 187.2 407.912 187.2 407.916 187.2C407.921 187.2 407.925 187.2 407.93 187.2C407.934 187.2 407.939 187.2 407.943 187.2C407.948 187.2 407.952 187.2 407.957 187.2C407.962 187.2 407.966 187.2 407.971 187.2C407.975 187.2 407.98 187.2 407.984 187.2C407.989 187.2 407.993 187.2 407.998 187.2C408.003 187.2 408.007 187.2 408.012 187.2C408.016 187.2 408.021 187.2 408.025 187.2C408.03 187.2 408.035 187.2 408.039 187.2C408.044 187.2 408.048 187.2 408.053 187.2C408.057 187.2 408.062 187.2 408.067 187.2C408.071 187.2 408.076 187.2 408.08 187.2C408.085 187.2 408.09 187.2 408.094 187.2C408.099 187.2 408.103 187.2 408.108 187.2C408.113 187.2 408.117 187.2 408.122 187.2C408.126 187.2 408.131 187.2 408.136 187.2C408.14 187.2 408.145 187.2 408.149 187.2C408.154 187.2 408.159 187.2 408.163 187.2C408.168 187.2 408.173 187.2 408.177 187.2C408.182 187.2 408.186 187.2 408.191 187.2C408.196 187.2 408.2 187.2 408.205 187.2C408.21 187.2 408.214 187.2 408.219 187.2C408.224 187.2 408.228 187.2 408.233 187.2C408.237 187.2 408.242 187.2 408.247 187.2C408.251 187.2 408.256 187.2 408.261 187.2C408.265 187.2 408.27 187.2 408.275 187.2C408.279 187.2 408.284 187.2 408.289 187.2C408.293 187.2 408.298 187.2 408.303 187.2C408.307 187.2 408.312 187.2 408.317 187.2C408.321 187.2 408.326 187.2 408.331 187.2C408.335 187.2 408.34 187.2 408.345 187.2C408.35 187.2 408.354 187.2 408.359 187.2C408.364 187.2 408.368 187.2 408.373 187.2C408.378 187.2 408.382 187.2 408.387 187.2C408.392 187.2 408.397 187.2 408.401 187.2C408.406 187.2 408.411 187.2 408.415 187.2C408.42 187.2 408.425 187.2 408.43 187.2C408.434 187.2 408.439 187.2 408.444 187.2C408.448 187.2 408.453 187.2 408.458 187.2C408.463 187.2 408.467 187.2 408.472 187.2C408.477 187.2 408.482 187.2 408.486 187.2C408.491 187.2 408.496 187.2 408.5 187.2C408.505 187.2 408.51 187.2 408.515 187.2C408.519 187.2 408.524 187.2 408.529 187.2C408.534 187.2 408.538 187.2 408.543 187.2C408.548 187.2 408.553 187.2 408.558 187.2C408.562 187.2 408.567 187.2 408.572 187.2C408.577 187.2 408.581 187.2 408.586 187.2C408.591 187.2 408.596 187.2 408.6 187.2C408.605 187.2 408.61 187.2 408.615 187.2C408.62 187.2 408.624 187.2 408.629 187.2C408.634 187.2 408.639 187.2 408.644 187.2C408.648 187.2 408.653 187.2 408.658 187.2C408.663 187.2 408.668 187.2 408.672 187.2C408.677 187.2 408.682 187.2 408.687 187.2C408.692 187.2 408.696 187.2 408.701 187.2C408.706 187.2 408.711 187.2 408.716 187.2C408.721 187.2 408.725 187.2 408.73 187.2C408.735 187.2 408.74 187.2 408.745 187.2C408.749 187.2 408.754 187.2 408.759 187.2C408.764 187.2 408.769 187.2 408.774 187.2C408.779 187.2 408.783 187.2 408.788 187.2C408.793 187.2 408.798 187.2 408.803 187.2C408.808 187.2 408.812 187.2 408.817 187.2C408.822 187.2 408.827 187.2 408.832 187.2C408.837 187.2 408.842 187.2 408.846 187.2C408.851 187.2 408.856 187.2 408.861 187.2C408.866 187.2 408.871 187.2 408.876 187.2C408.881 187.2 408.885 187.2 408.89 187.2C408.895 187.2 408.9 187.2 408.905 187.2C408.91 187.2 408.915 187.2 408.92 187.2C408.925 187.2 408.929 187.2 408.934 187.2C408.939 187.2 408.944 187.2 408.949 187.2C408.954 187.2 408.959 187.2 408.964 187.2C408.969 187.2 408.974 187.2 408.979 187.2C408.983 187.2 408.988 187.2 408.993 187.2C408.998 187.2 409.003 187.2 409.008 187.2C409.013 187.2 409.018 187.2 409.023 187.2C409.028 187.2 409.033 187.2 409.038 187.2C409.043 187.2 409.047 187.2 409.052 187.2C409.057 187.2 409.062 187.2 409.067 187.2C409.072 187.2 409.077 187.2 409.082 187.2V183.2V179.2C409.077 179.2 409.072 179.2 409.067 179.2C409.062 179.2 409.057 179.2 409.052 179.2C409.047 179.2 409.043 179.2 409.038 179.2C409.033 179.2 409.028 179.2 409.023 179.2C409.018 179.2 409.013 179.2 409.008 179.2C409.003 179.2 408.998 179.2 408.993 179.2C408.988 179.2 408.983 179.2 408.979 179.2C408.974 179.2 408.969 179.2 408.964 179.2C408.959 179.2 408.954 179.2 408.949 179.2C408.944 179.2 408.939 179.2 408.934 179.2C408.929 179.2 408.925 179.2 408.92 179.2C408.915 179.2 408.91 179.2 408.905 179.2C408.9 179.2 408.895 179.2 408.89 179.2C408.885 179.2 408.881 179.2 408.876 179.2C408.871 179.2 408.866 179.2 408.861 179.2C408.856 179.2 408.851 179.2 408.846 179.2C408.842 179.2 408.837 179.2 408.832 179.2C408.827 179.2 408.822 179.2 408.817 179.2C408.812 179.2 408.808 179.2 408.803 179.2C408.798 179.2 408.793 179.2 408.788 179.2C408.783 179.2 408.779 179.2 408.774 179.2C408.769 179.2 408.764 179.2 408.759 179.2C408.754 179.2 408.749 179.2 408.745 179.2C408.74 179.2 408.735 179.2 408.73 179.2C408.725 179.2 408.721 179.2 408.716 179.2C408.711 179.2 408.706 179.2 408.701 179.2C408.696 179.2 408.692 179.2 408.687 179.2C408.682 179.2 408.677 179.2 408.672 179.2C408.668 179.2 408.663 179.2 408.658 179.2C408.653 179.2 408.648 179.2 408.644 179.2C408.639 179.2 408.634 179.2 408.629 179.2C408.624 179.2 408.62 179.2 408.615 179.2C408.61 179.2 408.605 179.2 408.6 179.2C408.596 179.2 408.591 179.2 408.586 179.2C408.581 179.2 408.577 179.2 408.572 179.2C408.567 179.2 408.562 179.2 408.558 179.2C408.553 179.2 408.548 179.2 408.543 179.2C408.538 179.2 408.534 179.2 408.529 179.2C408.524 179.2 408.519 179.2 408.515 179.2C408.51 179.2 408.505 179.2 408.5 179.2C408.496 179.2 408.491 179.2 408.486 179.2C408.482 179.2 408.477 179.2 408.472 179.2C408.467 179.2 408.463 179.2 408.458 179.2C408.453 179.2 408.448 179.2 408.444 179.2C408.439 179.2 408.434 179.2 408.43 179.2C408.425 179.2 408.42 179.2 408.415 179.2C408.411 179.2 408.406 179.2 408.401 179.2C408.397 179.2 408.392 179.2 408.387 179.2C408.382 179.2 408.378 179.2 408.373 179.2C408.368 179.2 408.364 179.2 408.359 179.2C408.354 179.2 408.35 179.2 408.345 179.2C408.34 179.2 408.335 179.2 408.331 179.2C408.326 179.2 408.321 179.2 408.317 179.2C408.312 179.2 408.307 179.2 408.303 179.2C408.298 179.2 408.293 179.2 408.289 179.2C408.284 179.2 408.279 179.2 408.275 179.2C408.27 179.2 408.265 179.2 408.261 179.2C408.256 179.2 408.251 179.2 408.247 179.2C408.242 179.2 408.237 179.2 408.233 179.2C408.228 179.2 408.224 179.2 408.219 179.2C408.214 179.2 408.21 179.2 408.205 179.2C408.2 179.2 408.196 179.2 408.191 179.2C408.186 179.2 408.182 179.2 408.177 179.2C408.173 179.2 408.168 179.2 408.163 179.2C408.159 179.2 408.154 179.2 408.149 179.2C408.145 179.2 408.14 179.2 408.136 179.2C408.131 179.2 408.126 179.2 408.122 179.2C408.117 179.2 408.113 179.2 408.108 179.2C408.103 179.2 408.099 179.2 408.094 179.2C408.09 179.2 408.085 179.2 408.08 179.2C408.076 179.2 408.071 179.2 408.067 179.2C408.062 179.2 408.057 179.2 408.053 179.2C408.048 179.2 408.044 179.2 408.039 179.2C408.035 179.2 408.03 179.2 408.025 179.2C408.021 179.2 408.016 179.2 408.012 179.2C408.007 179.2 408.003 179.2 407.998 179.2C407.993 179.2 407.989 179.2 407.984 179.2C407.98 179.2 407.975 179.2 407.971 179.2C407.966 179.2 407.962 179.2 407.957 179.2C407.952 179.2 407.948 179.2 407.943 179.2C407.939 179.2 407.934 179.2 407.93 179.2C407.925 179.2 407.921 179.2 407.916 179.2C407.912 179.2 407.907 179.2 407.903 179.2C407.898 179.2 407.894 179.2 407.889 179.2C407.884 179.2 407.88 179.2 407.875 179.2C407.871 179.2 407.866 179.2 407.862 179.2C407.857 179.2 407.853 179.2 407.848 179.2C407.844 179.2 407.839 179.2 407.835 179.2C407.83 179.2 407.826 179.2 407.821 179.2C407.817 179.2 407.812 179.2 407.808 179.2C407.803 179.2 407.799 179.2 407.794 179.2C407.79 179.2 407.785 179.2 407.781 179.2C407.777 179.2 407.772 179.2 407.768 179.2C407.763 179.2 407.759 179.2 407.754 179.2C407.75 179.2 407.745 179.2 407.741 179.2C407.736 179.2 407.732 179.2 407.727 179.2C407.723 179.2 407.718 179.2 407.714 179.2C407.71 179.2 407.705 179.2 407.701 179.2C407.696 179.2 407.692 179.2 407.687 179.2C407.683 179.2 407.678 179.2 407.674 179.2C407.67 179.2 407.665 179.2 407.661 179.2C407.656 179.2 407.652 179.2 407.647 179.2C407.643 179.2 407.638 179.2 407.634 179.2C407.63 179.2 407.625 179.2 407.621 179.2C407.616 179.2 407.612 179.2 407.608 179.2C407.603 179.2 407.599 179.2 407.594 179.2C407.59 179.2 407.586 179.2 407.581 179.2C407.577 179.2 407.572 179.2 407.568 179.2C407.563 179.2 407.559 179.2 407.555 179.2C407.55 179.2 407.546 179.2 407.542 179.2C407.537 179.2 407.533 179.2 407.528 179.2C407.524 179.2 407.52 179.2 407.515 179.2C407.511 179.2 407.506 179.2 407.502 179.2C407.498 179.2 407.493 179.2 407.489 179.2C407.485 179.2 407.48 179.2 407.476 179.2C407.472 179.2 407.467 179.2 407.463 179.2C407.458 179.2 407.454 179.2 407.45 179.2C407.445 179.2 407.441 179.2 407.437 179.2C407.432 179.2 407.428 179.2 407.424 179.2C407.419 179.2 407.415 179.2 407.411 179.2C407.406 179.2 407.402 179.2 407.398 179.2C407.393 179.2 407.389 179.2 407.385 179.2C407.38 179.2 407.376 179.2 407.372 179.2C407.367 179.2 407.363 179.2 407.359 179.2C407.354 179.2 407.35 179.2 407.346 179.2C407.341 179.2 407.337 179.2 407.333 179.2C407.329 179.2 407.324 179.2 407.32 179.2C407.316 179.2 407.311 179.2 407.307 179.2C407.303 179.2 407.298 179.2 407.294 179.2C407.29 179.2 407.286 179.2 407.281 179.2C407.277 179.2 407.273 179.2 407.268 179.2C407.264 179.2 407.26 179.2 407.256 179.2C407.251 179.2 407.247 179.2 407.243 179.2C407.238 179.2 407.234 179.2 407.23 179.2C407.226 179.2 407.221 179.2 407.217 179.2C407.213 179.2 407.209 179.2 407.204 179.2C407.2 179.2 407.196 179.2 407.192 179.2C407.187 179.2 407.183 179.2 407.179 179.2C407.175 179.2 407.17 179.2 407.166 179.2C407.162 179.2 407.158 179.2 407.153 179.2C407.149 179.2 407.145 179.2 407.141 179.2C407.137 179.2 407.132 179.2 407.128 179.2C407.124 179.2 407.12 179.2 407.115 179.2C407.111 179.2 407.107 179.2 407.103 179.2C407.099 179.2 407.094 179.2 407.09 179.2C407.086 179.2 407.082 179.2 407.077 179.2C407.073 179.2 407.069 179.2 407.065 179.2C407.061 179.2 407.056 179.2 407.052 179.2C407.048 179.2 407.044 179.2 407.04 179.2C407.036 179.2 407.031 179.2 407.027 179.2C407.023 179.2 407.019 179.2 407.015 179.2C407.01 179.2 407.006 179.2 407.002 179.2C406.998 179.2 406.994 179.2 406.99 179.2C406.985 179.2 406.981 179.2 406.977 179.2C406.973 179.2 406.969 179.2 406.965 179.2C406.96 179.2 406.956 179.2 406.952 179.2C406.948 179.2 406.944 179.2 406.94 179.2C406.935 179.2 406.931 179.2 406.927 179.2C406.923 179.2 406.919 179.2 406.915 179.2C406.911 179.2 406.906 179.2 406.902 179.2C406.898 179.2 406.894 179.2 406.89 179.2C406.886 179.2 406.882 179.2 406.878 179.2C406.873 179.2 406.869 179.2 406.865 179.2C406.861 179.2 406.857 179.2 406.853 179.2C406.849 179.2 406.845 179.2 406.841 179.2C406.836 179.2 406.832 179.2 406.828 179.2C406.824 179.2 406.82 179.2 406.816 179.2C406.812 179.2 406.808 179.2 406.804 179.2C406.8 179.2 406.795 179.2 406.791 179.2C406.787 179.2 406.783 179.2 406.779 179.2C406.775 179.2 406.771 179.2 406.767 179.2C406.763 179.2 406.759 179.2 406.755 179.2C406.751 179.2 406.746 179.2 406.742 179.2C406.738 179.2 406.734 179.2 406.73 179.2C406.726 179.2 406.722 179.2 406.718 179.2C406.714 179.2 406.71 179.2 406.706 179.2C406.702 179.2 406.698 179.2 406.694 179.2C406.69 179.2 406.686 179.2 406.682 179.2C406.678 179.2 406.673 179.2 406.669 179.2C406.665 179.2 406.661 179.2 406.657 179.2C406.653 179.2 406.649 179.2 406.645 179.2C406.641 179.2 406.637 179.2 406.633 179.2C406.629 179.2 406.625 179.2 406.621 179.2C406.617 179.2 406.613 179.2 406.609 179.2C406.605 179.2 406.601 179.2 406.597 179.2C406.593 179.2 406.589 179.2 406.585 179.2C406.581 179.2 406.577 179.2 406.573 179.2C406.569 179.2 406.565 179.2 406.561 179.2C406.557 179.2 406.553 179.2 406.549 179.2C406.545 179.2 406.541 179.2 406.537 179.2C406.533 179.2 406.529 179.2 406.525 179.2C406.521 179.2 406.517 179.2 406.513 179.2C406.509 179.2 406.505 179.2 406.501 179.2C406.497 179.2 406.493 179.2 406.489 179.2C406.486 179.2 406.482 179.2 406.478 179.2C406.474 179.2 406.47 179.2 406.466 179.2C406.462 179.2 406.458 179.2 406.454 179.2C406.45 179.2 406.446 179.2 406.442 179.2C406.438 179.2 406.434 179.2 406.43 179.2C406.426 179.2 406.422 179.2 406.418 179.2C406.415 179.2 406.411 179.2 406.407 179.2C406.403 179.2 406.399 179.2 406.395 179.2C406.391 179.2 406.387 179.2 406.383 179.2C406.379 179.2 406.375 179.2 406.371 179.2C406.368 179.2 406.364 179.2 406.36 179.2C406.356 179.2 406.352 179.2 406.348 179.2C406.344 179.2 406.34 179.2 406.336 179.2C406.332 179.2 406.329 179.2 406.325 179.2C406.321 179.2 406.317 179.2 406.313 179.2C406.309 179.2 406.305 179.2 406.301 179.2C406.297 179.2 406.294 179.2 406.29 179.2C406.286 179.2 406.282 179.2 406.278 179.2C406.274 179.2 406.27 179.2 406.266 179.2C406.263 179.2 406.259 179.2 406.255 179.2C406.251 179.2 406.247 179.2 406.243 179.2C406.239 179.2 406.236 179.2 406.232 179.2C406.228 179.2 406.224 179.2 406.22 179.2C406.216 179.2 406.213 179.2 406.209 179.2C406.205 179.2 406.201 179.2 406.197 179.2C406.193 179.2 406.189 179.2 406.186 179.2C406.182 179.2 406.178 179.2 406.174 179.2C406.17 179.2 406.167 179.2 406.163 179.2C406.159 179.2 406.155 179.2 406.151 179.2C406.147 179.2 406.144 179.2 406.14 179.2C406.136 179.2 406.132 179.2 406.128 179.2C406.125 179.2 406.121 179.2 406.117 179.2C406.113 179.2 406.109 179.2 406.106 179.2C406.102 179.2 406.098 179.2 406.094 179.2C406.09 179.2 406.087 179.2 406.083 179.2C406.079 179.2 406.075 179.2 406.072 179.2C406.068 179.2 406.064 179.2 406.06 179.2C406.056 179.2 406.053 179.2 406.049 179.2C406.045 179.2 406.041 179.2 406.038 179.2C406.034 179.2 406.03 179.2 406.026 179.2C406.023 179.2 406.019 179.2 406.015 179.2C406.011 179.2 406.008 179.2 406.004 179.2C406 179.2 405.996 179.2 405.993 179.2C405.989 179.2 405.985 179.2 405.981 179.2C405.978 179.2 405.974 179.2 405.97 179.2C405.966 179.2 405.963 179.2 405.959 179.2C405.955 179.2 405.952 179.2 405.948 179.2C405.944 179.2 405.94 179.2 405.937 179.2C405.933 179.2 405.929 179.2 405.926 179.2C405.922 179.2 405.918 179.2 405.914 179.2C405.911 179.2 405.907 179.2 405.903 179.2C405.9 179.2 405.896 179.2 405.892 179.2C405.888 179.2 405.885 179.2 405.881 179.2C405.877 179.2 405.874 179.2 405.87 179.2C405.866 179.2 405.863 179.2 405.859 179.2C405.855 179.2 405.852 179.2 405.848 179.2C405.844 179.2 405.841 179.2 405.837 179.2C405.833 179.2 405.83 179.2 405.826 179.2C405.822 179.2 405.819 179.2 405.815 179.2C405.811 179.2 405.808 179.2 405.804 179.2C405.8 179.2 405.797 179.2 405.793 179.2C405.789 179.2 405.786 179.2 405.782 179.2C405.778 179.2 405.775 179.2 405.771 179.2C405.767 179.2 405.764 179.2 405.76 179.2C405.757 179.2 405.753 179.2 405.749 179.2C405.746 179.2 405.742 179.2 405.738 179.2C405.735 179.2 405.731 179.2 405.728 179.2C405.724 179.2 405.72 179.2 405.717 179.2C405.713 179.2 405.709 179.2 405.706 179.2C405.702 179.2 405.699 179.2 405.695 179.2C405.691 179.2 405.688 179.2 405.684 179.2C405.681 179.2 405.677 179.2 405.673 179.2C405.67 179.2 405.666 179.2 405.663 179.2C405.659 179.2 405.655 179.2 405.652 179.2C405.648 179.2 405.645 179.2 405.641 179.2C405.638 179.2 405.634 179.2 405.63 179.2C405.627 179.2 405.623 179.2 405.62 179.2C405.616 179.2 405.613 179.2 405.609 179.2C405.605 179.2 405.602 179.2 405.598 179.2C405.595 179.2 405.591 179.2 405.588 179.2C405.584 179.2 405.581 179.2 405.577 179.2C405.573 179.2 405.57 179.2 405.566 179.2C405.563 179.2 405.559 179.2 405.556 179.2C405.552 179.2 405.549 179.2 405.545 179.2C405.542 179.2 405.538 179.2 405.535 179.2C405.531 179.2 405.527 179.2 405.524 179.2C405.52 179.2 405.517 179.2 405.513 179.2C405.51 179.2 405.506 179.2 405.503 179.2C405.499 179.2 405.496 179.2 405.492 179.2C405.489 179.2 405.485 179.2 405.482 179.2C405.478 179.2 405.475 179.2 405.471 179.2C405.468 179.2 405.464 179.2 405.461 179.2C405.457 179.2 405.454 179.2 405.45 179.2C405.447 179.2 405.443 179.2 405.44 179.2C405.436 179.2 405.433 179.2 405.429 179.2C405.426 179.2 405.422 179.2 405.419 179.2C405.416 179.2 405.412 179.2 405.409 179.2C405.405 179.2 405.402 179.2 405.398 179.2C405.395 179.2 405.391 179.2 405.388 179.2C405.384 179.2 405.381 179.2 405.377 179.2C405.374 179.2 405.371 179.2 405.367 179.2C405.364 179.2 405.36 179.2 405.357 179.2C405.353 179.2 405.35 179.2 405.346 179.2C405.343 179.2 405.34 179.2 405.336 179.2C405.333 179.2 405.329 179.2 405.326 179.2C405.322 179.2 405.319 179.2 405.316 179.2C405.312 179.2 405.309 179.2 405.305 179.2C405.302 179.2 405.298 179.2 405.295 179.2C405.292 179.2 405.288 179.2 405.285 179.2C405.281 179.2 405.278 179.2 405.275 179.2C405.271 179.2 405.268 179.2 405.264 179.2C405.261 179.2 405.258 179.2 405.254 179.2C405.251 179.2 405.247 179.2 405.244 179.2C405.241 179.2 405.237 179.2 405.234 179.2C405.231 179.2 405.227 179.2 405.224 179.2C405.22 179.2 405.217 179.2 405.214 179.2C405.21 179.2 405.207 179.2 405.204 179.2C405.2 179.2 405.197 179.2 405.193 179.2C405.19 179.2 405.187 179.2 405.183 179.2C405.18 179.2 405.177 179.2 405.173 179.2C405.17 179.2 405.167 179.2 405.163 179.2C405.16 179.2 405.157 179.2 405.153 179.2C405.15 179.2 405.147 179.2 405.143 179.2C405.14 179.2 405.137 179.2 405.133 179.2C405.13 179.2 405.127 179.2 405.123 179.2C405.12 179.2 405.117 179.2 405.113 179.2C405.11 179.2 405.107 179.2 405.103 179.2C405.1 179.2 405.097 179.2 405.093 179.2C405.09 179.2 405.087 179.2 405.083 179.2C405.08 179.2 405.077 179.2 405.074 179.2C405.07 179.2 405.067 179.2 405.064 179.2C405.06 179.2 405.057 179.2 405.054 179.2C405.051 179.2 405.047 179.2 405.044 179.2C405.041 179.2 405.037 179.2 405.034 179.2C405.031 179.2 405.028 179.2 405.024 179.2C405.021 179.2 405.018 179.2 405.014 179.2C405.011 179.2 405.008 179.2 405.005 179.2C405.001 179.2 404.998 179.2 404.995 179.2C404.992 179.2 404.988 179.2 404.985 179.2C404.982 179.2 404.979 179.2 404.975 179.2C404.972 179.2 404.969 179.2 404.966 179.2C404.962 179.2 404.959 179.2 404.956 179.2C404.953 179.2 404.949 179.2 404.946 179.2C404.943 179.2 404.94 179.2 404.936 179.2C404.933 179.2 404.93 179.2 404.927 179.2C404.924 179.2 404.92 179.2 404.917 179.2C404.914 179.2 404.911 179.2 404.907 179.2C404.904 179.2 404.901 179.2 404.898 179.2C404.895 179.2 404.891 179.2 404.888 179.2C404.885 179.2 404.882 179.2 404.879 179.2C404.875 179.2 404.872 179.2 404.869 179.2C404.866 179.2 404.863 179.2 404.859 179.2C404.856 179.2 404.853 179.2 404.85 179.2C404.847 179.2 404.844 179.2 404.84 179.2C404.837 179.2 404.834 179.2 404.831 179.2C404.828 179.2 404.824 179.2 404.821 179.2C404.818 179.2 404.815 179.2 404.812 179.2C404.809 179.2 404.806 179.2 404.802 179.2C404.799 179.2 404.796 179.2 404.793 179.2C404.79 179.2 404.787 179.2 404.783 179.2C404.78 179.2 404.777 179.2 404.774 179.2C404.771 179.2 404.768 179.2 404.765 179.2C404.761 179.2 404.758 179.2 404.755 179.2C404.752 179.2 404.749 179.2 404.746 179.2C404.743 179.2 404.74 179.2 404.736 179.2C404.733 179.2 404.73 179.2 404.727 179.2C404.724 179.2 404.721 179.2 404.718 179.2C404.715 179.2 404.711 179.2 404.708 179.2C404.705 179.2 404.702 179.2 404.699 179.2C404.696 179.2 404.693 179.2 404.69 179.2C404.687 179.2 404.684 179.2 404.68 179.2C404.677 179.2 404.674 179.2 404.671 179.2C404.668 179.2 404.665 179.2 404.662 179.2C404.659 179.2 404.656 179.2 404.653 179.2C404.65 179.2 404.647 179.2 404.644 179.2C404.64 179.2 404.637 179.2 404.634 179.2C404.631 179.2 404.628 179.2 404.625 179.2C404.622 179.2 404.619 179.2 404.616 179.2C404.613 179.2 404.61 179.2 404.607 179.2C404.604 179.2 404.601 179.2 404.598 179.2C404.595 179.2 404.592 179.2 404.589 179.2C404.585 179.2 404.582 179.2 404.579 179.2C404.576 179.2 404.573 179.2 404.57 179.2C404.567 179.2 404.564 179.2 404.561 179.2C404.558 179.2 404.555 179.2 404.552 179.2C404.549 179.2 404.546 179.2 404.543 179.2C404.54 179.2 404.537 179.2 404.534 179.2C404.531 179.2 404.528 179.2 404.525 179.2C404.522 179.2 404.519 179.2 404.516 179.2C404.513 179.2 404.51 179.2 404.507 179.2C404.504 179.2 404.501 179.2 404.498 179.2C404.495 179.2 404.492 179.2 404.489 179.2C404.486 179.2 404.483 179.2 404.48 179.2C404.477 179.2 404.474 179.2 404.471 179.2C404.468 179.2 404.465 179.2 404.462 179.2C404.459 179.2 404.456 179.2 404.453 179.2C404.45 179.2 404.447 179.2 404.445 179.2C404.442 179.2 404.439 179.2 404.436 179.2C404.433 179.2 404.43 179.2 404.427 179.2C404.424 179.2 404.421 179.2 404.418 179.2C404.415 179.2 404.412 179.2 404.409 179.2C404.406 179.2 404.403 179.2 404.4 179.2C404.397 179.2 404.394 179.2 404.392 179.2C404.389 179.2 404.386 179.2 404.383 179.2C404.38 179.2 404.377 179.2 404.374 179.2C404.371 179.2 404.368 179.2 404.365 179.2C404.362 179.2 404.359 179.2 404.357 179.2C404.354 179.2 404.351 179.2 404.348 179.2C404.345 179.2 404.342 179.2 404.339 179.2C404.336 179.2 404.333 179.2 404.33 179.2C404.328 179.2 404.325 179.2 404.322 179.2C404.319 179.2 404.316 179.2 404.313 179.2C404.31 179.2 404.307 179.2 404.304 179.2C404.302 179.2 404.299 179.2 404.296 179.2C404.293 179.2 404.29 179.2 404.287 179.2C404.284 179.2 404.281 179.2 404.279 179.2C404.276 179.2 404.273 179.2 404.27 179.2C404.267 179.2 404.264 179.2 404.261 179.2C404.259 179.2 404.256 179.2 404.253 179.2C404.25 179.2 404.247 179.2 404.244 179.2C404.242 179.2 404.239 179.2 404.236 179.2C404.233 179.2 404.23 179.2 404.227 179.2C404.225 179.2 404.222 179.2 404.219 179.2C404.216 179.2 404.213 179.2 404.21 179.2C404.208 179.2 404.205 179.2 404.202 179.2C404.199 179.2 404.196 179.2 404.193 179.2C404.191 179.2 404.188 179.2 404.185 179.2C404.182 179.2 404.179 179.2 404.177 179.2C404.174 179.2 404.171 179.2 404.168 179.2C404.165 179.2 404.163 179.2 404.16 179.2C404.157 179.2 404.154 179.2 404.151 179.2C404.149 179.2 404.146 179.2 404.143 179.2C404.14 179.2 404.138 179.2 404.135 179.2C404.132 179.2 404.129 179.2 404.126 179.2C404.124 179.2 404.121 179.2 404.118 179.2C404.115 179.2 404.113 179.2 404.11 179.2C404.107 179.2 404.104 179.2 404.102 179.2C404.099 179.2 404.096 179.2 404.093 179.2C404.091 179.2 404.088 179.2 404.085 179.2C404.082 179.2 404.08 179.2 404.077 179.2C404.074 179.2 404.071 179.2 404.069 179.2C404.066 179.2 404.063 179.2 404.06 179.2C404.058 179.2 404.055 179.2 404.052 179.2C404.05 179.2 404.047 179.2 404.044 179.2C404.041 179.2 404.039 179.2 404.036 179.2C404.033 179.2 404.031 179.2 404.028 179.2C404.025 179.2 404.022 179.2 404.02 179.2C404.017 179.2 404.014 179.2 404.012 179.2C404.009 179.2 404.006 179.2 404.004 179.2C404.001 179.2 403.998 179.2 403.995 179.2C403.993 179.2 403.99 179.2 403.987 179.2C403.985 179.2 403.982 179.2 403.979 179.2C403.977 179.2 403.974 179.2 403.971 179.2C403.969 179.2 403.966 179.2 403.963 179.2C403.961 179.2 403.958 179.2 403.955 179.2C403.953 179.2 403.95 179.2 403.947 179.2C403.945 179.2 403.942 179.2 403.939 179.2C403.937 179.2 403.934 179.2 403.931 179.2C403.929 179.2 403.926 179.2 403.923 179.2C403.921 179.2 403.918 179.2 403.916 179.2C403.913 179.2 403.91 179.2 403.908 179.2C403.905 179.2 403.902 179.2 403.9 179.2C403.897 179.2 403.894 179.2 403.892 179.2C403.889 179.2 403.887 179.2 403.884 179.2C403.881 179.2 403.879 179.2 403.876 179.2C403.874 179.2 403.871 179.2 403.868 179.2C403.866 179.2 403.863 179.2 403.86 179.2C403.858 179.2 403.855 179.2 403.853 179.2C403.85 179.2 403.847 179.2 403.845 179.2C403.842 179.2 403.84 179.2 403.837 179.2C403.835 179.2 403.832 179.2 403.829 179.2C403.827 179.2 403.824 179.2 403.822 179.2C403.819 179.2 403.816 179.2 403.814 179.2C403.811 179.2 403.809 179.2 403.806 179.2C403.804 179.2 403.801 179.2 403.798 179.2C403.796 179.2 403.793 179.2 403.791 179.2C403.788 179.2 403.786 179.2 403.783 179.2C403.781 179.2 403.778 179.2 403.775 179.2C403.773 179.2 403.77 179.2 403.768 179.2C403.765 179.2 403.763 179.2 403.76 179.2C403.758 179.2 403.755 179.2 403.753 179.2C403.75 179.2 403.748 179.2 403.745 179.2C403.743 179.2 403.74 179.2 403.737 179.2C403.735 179.2 403.732 179.2 403.73 179.2C403.727 179.2 403.725 179.2 403.722 179.2C403.72 179.2 403.717 179.2 403.715 179.2C403.712 179.2 403.71 179.2 403.707 179.2C403.705 179.2 403.702 179.2 403.7 179.2C403.697 179.2 403.695 179.2 403.692 179.2C403.69 179.2 403.687 179.2 403.685 179.2C403.682 179.2 403.68 179.2 403.677 179.2C403.675 179.2 403.672 179.2 403.67 179.2C403.668 179.2 403.665 179.2 403.663 179.2C403.66 179.2 403.658 179.2 403.655 179.2C403.653 179.2 403.65 179.2 403.648 179.2C403.645 179.2 403.643 179.2 403.64 179.2C403.638 179.2 403.636 179.2 403.633 179.2C403.631 179.2 403.628 179.2 403.626 179.2C403.623 179.2 403.621 179.2 403.618 179.2C403.616 179.2 403.614 179.2 403.611 179.2C403.609 179.2 403.606 179.2 403.604 179.2C403.601 179.2 403.599 179.2 403.596 179.2C403.594 179.2 403.592 179.2 403.589 179.2C403.587 179.2 403.584 179.2 403.582 179.2C403.58 179.2 403.577 179.2 403.575 179.2C403.572 179.2 403.57 179.2 403.568 179.2C403.565 179.2 403.563 179.2 403.56 179.2C403.558 179.2 403.556 179.2 403.553 179.2C403.551 179.2 403.548 179.2 403.546 179.2C403.544 179.2 403.541 179.2 403.539 179.2C403.536 179.2 403.534 179.2 403.532 179.2C403.529 179.2 403.527 179.2 403.524 179.2C403.522 179.2 403.52 179.2 403.517 179.2C403.515 179.2 403.513 179.2 403.51 179.2C403.508 179.2 403.506 179.2 403.503 179.2C403.501 179.2 403.498 179.2 403.496 179.2C403.494 179.2 403.491 179.2 403.489 179.2C403.487 179.2 403.484 179.2 403.482 179.2V183.2ZM409.082 183.2L409.292 187.194C411.826 187.061 414.359 186.928 416.892 186.794L416.682 182.8L416.472 178.806C413.938 178.939 411.405 179.072 408.872 179.206L409.082 183.2ZM416.682 182.8L416.892 186.794C419.438 186.66 421.577 186.449 423.052 186.081L422.082 182.2L421.112 178.319C420.453 178.484 418.993 178.673 416.472 178.806L416.682 182.8ZM422.082 182.2H426.082V170.8H422.082H418.082V182.2H422.082Z" fill="black"/>
<path d="M576.453 208.2H544.453V81.6H576.453V130H624.453V81.6H656.453V208.2H624.453V156H576.453V208.2ZM812.391 207.6V208.2H778.391C777.457 205 776.324 201.333 774.991 197.2C773.791 193.067 772.457 188.667 770.991 184H727.791C725.124 193.333 722.657 201.4 720.391 208.2H686.391V207.8L727.391 81.6H771.391L812.391 207.6ZM748.991 104.4C747.657 111.2 745.724 119.467 743.191 129.2C740.657 138.933 737.991 148.867 735.191 159H763.791C760.857 148.867 758.124 138.933 755.591 129.2C753.057 119.467 751.124 111.2 749.791 104.4H748.991ZM952.069 81.6V156.2C952.069 169.267 950.469 179.733 947.269 187.6C944.202 195.467 938.802 201.2 931.069 204.8C923.335 208.267 912.402 210 898.269 210C883.602 210 872.202 208.267 864.069 204.8C856.069 201.2 850.469 195.467 847.269 187.6C844.069 179.733 842.469 169.267 842.469 156.2V81.6H874.469V155.6C874.469 162.4 875.135 167.733 876.469 171.6C877.802 175.467 880.202 178.2 883.669 179.8C887.135 181.267 892.002 182 898.269 182C904.135 182 908.602 181.267 911.669 179.8C914.869 178.2 917.069 175.467 918.269 171.6C919.469 167.733 920.069 162.4 920.069 155.6V81.6H952.069ZM988.863 175.6C994.729 177.6 1001.13 179.2 1008.06 180.4C1015.13 181.467 1022.13 182 1029.06 182C1038.53 182 1045.53 181.6 1050.06 180.8C1054.73 179.867 1057.8 178.467 1059.26 176.6C1060.73 174.733 1061.46 172.333 1061.46 169.4C1061.46 166.867 1060.93 164.867 1059.86 163.4C1058.8 161.933 1056.73 160.8 1053.66 160C1050.6 159.067 1046.06 158.333 1040.06 157.8L1026.86 156.6C1017 155.667 1009.2 153.6 1003.46 150.4C997.863 147.2 993.863 142.933 991.463 137.6C989.196 132.133 988.063 125.6 988.063 118C988.063 108.933 989.863 101.6 993.463 96C997.196 90.4 1003.2 86.3333 1011.46 83.8C1019.73 81.1333 1030.73 79.8 1044.46 79.8C1062.33 79.8 1077.06 82.1333 1088.66 86.8L1088.06 114L1087.46 114.8C1074.26 110.133 1060.46 107.8 1046.06 107.8C1039.13 107.8 1033.8 108.2 1030.06 109C1026.33 109.667 1023.73 110.8 1022.26 112.4C1020.8 114 1020.06 116.267 1020.06 119.2C1020.06 122.133 1020.53 124.333 1021.46 125.8C1022.53 127.267 1024.6 128.4 1027.66 129.2C1030.73 129.867 1035.2 130.533 1041.06 131.2L1053.66 132.6C1064.33 133.8 1072.53 135.933 1078.26 139C1084 142.067 1087.93 146.2 1090.06 151.4C1092.33 156.467 1093.46 162.667 1093.46 170C1093.46 178.933 1091.53 186.4 1087.66 192.4C1083.93 198.267 1077.8 202.667 1069.26 205.6C1060.73 208.533 1049.33 210 1035.06 210C1025.73 210 1017.33 209.533 1009.86 208.6C1002.4 207.533 995.129 206.133 988.063 204.4V176.2L988.863 175.6Z" fill="#FA6E4B"/>
<path d="M576.453 208.2V212.2H580.453V208.2H576.453ZM544.453 208.2H540.453V212.2H544.453V208.2ZM544.453 81.6V77.6H540.453V81.6H544.453ZM576.453 81.6H580.453V77.6H576.453V81.6ZM576.453 130H572.453V134H576.453V130ZM624.453 130V134H628.453V130H624.453ZM624.453 81.6V77.6H620.453V81.6H624.453ZM656.453 81.6H660.453V77.6H656.453V81.6ZM656.453 208.2V212.2H660.453V208.2H656.453ZM624.453 208.2H620.453V212.2H624.453V208.2ZM624.453 156H628.453V152H624.453V156ZM576.453 156V152H572.453V156H576.453ZM576.453 208.2V204.2H544.453V208.2V212.2H576.453V208.2ZM544.453 208.2H548.453V81.6H544.453H540.453V208.2H544.453ZM544.453 81.6V85.6H576.453V81.6V77.6H544.453V81.6ZM576.453 81.6H572.453V130H576.453H580.453V81.6H576.453ZM576.453 130V134H624.453V130V126H576.453V130ZM624.453 130H628.453V81.6H624.453H620.453V130H624.453ZM624.453 81.6V85.6H656.453V81.6V77.6H624.453V81.6ZM656.453 81.6H652.453V208.2H656.453H660.453V81.6H656.453ZM656.453 208.2V204.2H624.453V208.2V212.2H656.453V208.2ZM624.453 208.2H628.453V156H624.453H620.453V208.2H624.453ZM624.453 156V152H576.453V156V160H624.453V156ZM576.453 156H572.453V208.2H576.453H580.453V156H576.453ZM812.391 207.6H816.391V206.966L816.194 206.362L812.391 207.6ZM812.391 208.2V212.2H816.391V208.2H812.391ZM778.391 208.2L774.551 209.32L775.391 212.2H778.391V208.2ZM774.991 197.2L771.149 198.315L771.166 198.372L771.184 198.428L774.991 197.2ZM770.991 184L774.807 182.801L773.926 180H770.991V184ZM727.791 184V180H724.773L723.945 182.901L727.791 184ZM720.391 208.2V212.2H723.274L724.185 209.465L720.391 208.2ZM686.391 208.2H682.391V212.2H686.391V208.2ZM686.391 207.8L682.586 206.564L682.391 207.167V207.8H686.391ZM727.391 81.6V77.6H724.484L723.586 80.3641L727.391 81.6ZM771.391 81.6L775.194 80.3623L774.295 77.6H771.391V81.6ZM748.991 104.4V100.4H745.699L745.065 103.63L748.991 104.4ZM743.191 129.2L739.32 128.192L739.32 128.192L743.191 129.2ZM735.191 159L731.335 157.935L729.935 163H735.191V159ZM763.791 159V163H769.113L767.633 157.888L763.791 159ZM755.591 129.2L751.72 130.208L751.72 130.208L755.591 129.2ZM749.791 104.4L753.716 103.63L753.082 100.4H749.791V104.4ZM812.391 207.6H808.391V208.2H812.391H816.391V207.6H812.391ZM812.391 208.2V204.2H778.391V208.2V212.2H812.391V208.2ZM778.391 208.2L782.231 207.08C781.284 203.835 780.139 200.131 778.797 195.972L774.991 197.2L771.184 198.428C772.509 202.536 773.63 206.165 774.551 209.32L778.391 208.2ZM774.991 197.2L778.832 196.085C777.623 191.92 776.281 187.492 774.807 182.801L770.991 184L767.175 185.199C768.634 189.842 769.958 194.213 771.149 198.315L774.991 197.2ZM770.991 184V180H727.791V184V188H770.991V184ZM727.791 184L723.945 182.901C721.289 192.197 718.839 200.205 716.596 206.935L720.391 208.2L724.185 209.465C726.475 202.595 728.959 194.47 731.637 185.099L727.791 184ZM720.391 208.2V204.2H686.391V208.2V212.2H720.391V208.2ZM686.391 208.2H690.391V207.8H686.391H682.391V208.2H686.391ZM686.391 207.8L690.195 209.036L731.195 82.8359L727.391 81.6L723.586 80.3641L682.586 206.564L686.391 207.8ZM727.391 81.6V85.6H771.391V81.6V77.6H727.391V81.6ZM771.391 81.6L767.587 82.8377L808.587 208.838L812.391 207.6L816.194 206.362L775.194 80.3623L771.391 81.6ZM748.991 104.4L745.065 103.63C743.753 110.324 741.841 118.506 739.32 128.192L743.191 129.2L747.062 130.208C749.607 120.427 751.562 112.076 752.916 105.17L748.991 104.4ZM743.191 129.2L739.32 128.192C736.792 137.906 734.13 147.82 731.335 157.935L735.191 159L739.046 160.065C741.851 149.914 744.523 139.961 747.062 130.208L743.191 129.2ZM735.191 159V163H763.791V159V155H735.191V159ZM763.791 159L767.633 157.888C764.709 147.788 761.985 137.889 759.462 128.192L755.591 129.2L751.72 130.208C754.262 139.978 757.005 149.946 759.948 160.112L763.791 159ZM755.591 129.2L759.462 128.192C756.941 118.506 755.028 110.324 753.716 103.63L749.791 104.4L745.865 105.17C747.22 112.076 749.174 120.427 751.72 130.208L755.591 129.2ZM749.791 104.4V100.4H748.991V104.4V108.4H749.791V104.4ZM952.069 81.6H956.069V77.6H952.069V81.6ZM947.269 187.6L943.564 186.093L943.553 186.12L943.542 186.147L947.269 187.6ZM931.069 204.8L932.705 208.45L932.731 208.438L932.757 208.426L931.069 204.8ZM864.069 204.8L862.427 208.448L862.464 208.464L862.5 208.48L864.069 204.8ZM847.269 187.6L850.974 186.093L850.974 186.093L847.269 187.6ZM842.469 81.6V77.6H838.469V81.6H842.469ZM874.469 81.6H878.469V77.6H874.469V81.6ZM876.469 171.6L872.687 172.904L872.687 172.904L876.469 171.6ZM883.669 179.8L881.993 183.432L882.051 183.459L882.11 183.484L883.669 179.8ZM911.669 179.8L913.395 183.409L913.426 183.393L913.458 183.378L911.669 179.8ZM918.269 171.6L922.089 172.786L922.089 172.786L918.269 171.6ZM920.069 81.6V77.6H916.069V81.6H920.069ZM952.069 81.6H948.069V156.2H952.069H956.069V81.6H952.069ZM952.069 156.2H948.069C948.069 168.999 946.493 178.891 943.564 186.093L947.269 187.6L950.974 189.107C954.445 180.575 956.069 169.534 956.069 156.2H952.069ZM947.269 187.6L943.542 186.147C940.854 193.043 936.191 198.004 929.381 201.174L931.069 204.8L932.757 208.426C941.414 204.396 947.55 197.891 950.996 189.053L947.269 187.6ZM931.069 204.8L929.433 201.15C922.447 204.282 912.166 206 898.269 206V210V214C912.638 214 924.224 212.252 932.705 208.45L931.069 204.8ZM898.269 210V206C883.832 206 873.053 204.281 865.637 201.12L864.069 204.8L862.5 208.48C871.351 212.252 883.372 214 898.269 214V210ZM864.069 204.8L865.71 201.152C858.613 197.959 853.773 192.973 850.974 186.093L847.269 187.6L843.564 189.107C847.165 197.96 853.524 204.441 862.427 208.448L864.069 204.8ZM847.269 187.6L850.974 186.093C848.045 178.891 846.469 168.999 846.469 156.2H842.469H838.469C838.469 169.534 840.093 180.575 843.564 189.107L847.269 187.6ZM842.469 156.2H846.469V81.6H842.469H838.469V156.2H842.469ZM842.469 81.6V85.6H874.469V81.6V77.6H842.469V81.6ZM874.469 81.6H870.469V155.6H874.469H878.469V81.6H874.469ZM874.469 155.6H870.469C870.469 162.59 871.145 168.431 872.687 172.904L876.469 171.6L880.25 170.296C879.126 167.035 878.469 162.21 878.469 155.6H874.469ZM876.469 171.6L872.687 172.904C874.348 177.719 877.46 181.34 881.993 183.432L883.669 179.8L885.345 176.168C882.944 175.06 881.256 173.214 880.25 170.296L876.469 171.6ZM883.669 179.8L882.11 183.484C886.292 185.253 891.776 186 898.269 186V182V178C892.228 178 887.979 177.28 885.227 176.116L883.669 179.8ZM898.269 182V186C904.359 186 909.531 185.256 913.395 183.409L911.669 179.8L909.943 176.191C907.673 177.277 903.912 178 898.269 178V182ZM911.669 179.8L913.458 183.378C917.765 181.224 920.613 177.543 922.089 172.786L918.269 171.6L914.448 170.414C913.525 173.391 911.973 175.176 909.88 176.222L911.669 179.8ZM918.269 171.6L922.089 172.786C923.462 168.362 924.069 162.568 924.069 155.6H920.069H916.069C916.069 162.232 915.476 167.105 914.448 170.414L918.269 171.6ZM920.069 155.6H924.069V81.6H920.069H916.069V155.6H920.069ZM920.069 81.6V85.6H952.069V81.6V77.6H920.069V81.6ZM988.863 175.6L990.153 171.814L988.153 171.132L986.463 172.4L988.863 175.6ZM1008.06 180.4L1007.38 184.341L1007.42 184.349L1007.47 184.355L1008.06 180.4ZM1050.06 180.8L1050.76 184.739L1050.8 184.731L1050.85 184.722L1050.06 180.8ZM1059.26 176.6L1062.41 179.071L1062.41 179.071L1059.26 176.6ZM1059.86 163.4L1056.63 165.753L1056.63 165.753L1059.86 163.4ZM1053.66 160L1052.5 163.827L1052.57 163.85L1052.65 163.87L1053.66 160ZM1040.06 157.8L1039.7 161.784L1039.71 161.784L1040.06 157.8ZM1026.86 156.6L1026.49 160.582L1026.49 160.583L1026.5 160.584L1026.86 156.6ZM1003.46 150.4L1001.48 153.873L1001.5 153.883L1001.51 153.893L1003.46 150.4ZM991.463 137.6L987.768 139.132L987.79 139.187L987.815 139.241L991.463 137.6ZM993.463 96L990.134 93.7812L990.116 93.8089L990.098 93.837L993.463 96ZM1011.46 83.8L1012.63 87.6244L1012.66 87.6158L1012.69 87.6068L1011.46 83.8ZM1088.66 86.8L1092.66 86.8882L1092.72 84.1218L1090.16 83.089L1088.66 86.8ZM1088.06 114L1091.26 116.4L1092.03 115.372L1092.06 114.088L1088.06 114ZM1087.46 114.8L1086.13 118.571L1088.9 119.551L1090.66 117.2L1087.46 114.8ZM1030.06 109L1030.77 112.938L1030.83 112.926L1030.9 112.911L1030.06 109ZM1022.26 112.4L1019.31 109.697L1019.31 109.697L1022.26 112.4ZM1021.46 125.8L1018.09 127.948L1018.15 128.052L1018.23 128.153L1021.46 125.8ZM1027.66 129.2L1026.65 133.07L1026.73 133.091L1026.81 133.109L1027.66 129.2ZM1041.06 131.2L1040.61 135.174L1040.62 135.176L1041.06 131.2ZM1053.66 132.6L1054.11 128.625L1054.1 128.624L1053.66 132.6ZM1090.06 151.4L1086.36 152.918L1086.39 152.976L1086.41 153.033L1090.06 151.4ZM1087.66 192.4L1084.3 190.233L1084.29 190.243L1084.29 190.252L1087.66 192.4ZM1069.26 205.6L1067.96 201.817L1067.96 201.817L1069.26 205.6ZM1009.86 208.6L1009.3 212.56L1009.33 212.565L1009.37 212.569L1009.86 208.6ZM988.063 204.4H984.063V207.537L987.11 208.285L988.063 204.4ZM988.063 176.2L985.663 173L984.063 174.2V176.2H988.063ZM988.863 175.6L987.572 179.386C993.661 181.462 1000.27 183.11 1007.38 184.341L1008.06 180.4L1008.74 176.459C1001.99 175.29 995.797 173.738 990.153 171.814L988.863 175.6ZM1008.06 180.4L1007.47 184.355C1014.72 185.451 1021.92 186 1029.06 186V182V178C1022.34 178 1015.53 177.483 1008.66 176.445L1008.06 180.4ZM1029.06 182V186C1038.57 186 1045.86 185.603 1050.76 184.739L1050.06 180.8L1049.37 176.861C1045.2 177.597 1038.49 178 1029.06 178V182ZM1050.06 180.8L1050.85 184.722C1055.65 183.761 1059.99 182.144 1062.41 179.071L1059.26 176.6L1056.12 174.129C1055.6 174.789 1053.81 175.972 1049.28 176.878L1050.06 180.8ZM1059.26 176.6L1062.41 179.071C1064.55 176.347 1065.46 173.013 1065.46 169.4H1061.46H1057.46C1057.46 171.653 1056.91 173.12 1056.12 174.129L1059.26 176.6ZM1061.46 169.4H1065.46C1065.46 166.348 1064.82 163.421 1063.1 161.047L1059.86 163.4L1056.63 165.753C1057.03 166.312 1057.46 167.386 1057.46 169.4H1061.46ZM1059.86 163.4L1063.1 161.047C1061.21 158.449 1058.03 157.006 1054.67 156.13L1053.66 160L1052.65 163.87C1055.43 164.594 1056.38 165.417 1056.63 165.753L1059.86 163.4ZM1053.66 160L1054.83 156.173C1051.36 155.118 1046.5 154.356 1040.42 153.816L1040.06 157.8L1039.71 161.784C1045.63 162.311 1049.83 163.016 1052.5 163.827L1053.66 160ZM1040.06 157.8L1040.42 153.816L1027.22 152.616L1026.86 156.6L1026.5 160.584L1039.7 161.784L1040.06 157.8ZM1026.86 156.6L1027.24 152.618C1017.67 151.713 1010.48 149.735 1005.41 146.907L1003.46 150.4L1001.51 153.893C1007.91 157.465 1016.32 159.621 1026.49 160.582L1026.86 156.6ZM1003.46 150.4L1005.45 146.927C1000.5 144.101 997.128 140.442 995.11 135.959L991.463 137.6L987.815 139.241C990.597 145.425 995.223 150.299 1001.48 153.873L1003.46 150.4ZM991.463 137.6L995.157 136.068C993.141 131.204 992.063 125.217 992.063 118H988.063H984.063C984.063 125.983 985.251 133.063 987.768 139.132L991.463 137.6ZM988.063 118H992.063C992.063 109.431 993.767 102.924 996.827 98.163L993.463 96L990.098 93.837C985.958 100.276 984.063 108.435 984.063 118H988.063ZM993.463 96L996.791 98.2188C999.881 93.5829 1004.99 89.9656 1012.63 87.6244L1011.46 83.8L1010.29 79.9755C1001.4 82.701 994.51 87.217 990.134 93.7812L993.463 96ZM1011.46 83.8L1012.69 87.6068C1020.4 85.1202 1030.93 83.8 1044.46 83.8V79.8V75.8C1030.52 75.8 1019.06 77.1464 1010.23 79.9932L1011.46 83.8ZM1044.46 79.8V83.8C1062.02 83.8 1076.2 86.0984 1087.17 90.5109L1088.66 86.8L1090.16 83.089C1077.92 78.1683 1062.64 75.8 1044.46 75.8V79.8ZM1088.66 86.8L1084.66 86.7118L1084.06 113.912L1088.06 114L1092.06 114.088L1092.66 86.8882L1088.66 86.8ZM1088.06 114L1084.86 111.6L1084.26 112.4L1087.46 114.8L1090.66 117.2L1091.26 116.4L1088.06 114ZM1087.46 114.8L1088.8 111.029C1075.16 106.206 1060.9 103.8 1046.06 103.8V107.8V111.8C1060.02 111.8 1073.37 114.06 1086.13 118.571L1087.46 114.8ZM1046.06 107.8V103.8C1039.04 103.8 1033.37 104.2 1029.22 105.089L1030.06 109L1030.9 112.911C1034.22 112.2 1039.22 111.8 1046.06 111.8V107.8ZM1030.06 109L1029.36 105.062C1025.34 105.78 1021.67 107.122 1019.31 109.697L1022.26 112.4L1025.21 115.103C1025.78 114.478 1027.32 113.553 1030.77 112.938L1030.06 109ZM1022.26 112.4L1019.31 109.697C1016.96 112.261 1016.06 115.623 1016.06 119.2H1020.06H1024.06C1024.06 116.91 1024.63 115.739 1025.21 115.103L1022.26 112.4ZM1020.06 119.2H1016.06C1016.06 122.429 1016.55 125.535 1018.09 127.948L1021.46 125.8L1024.84 123.652C1024.51 123.131 1024.06 121.838 1024.06 119.2H1020.06ZM1021.46 125.8L1018.23 128.153C1020.12 130.751 1023.29 132.194 1026.65 133.07L1027.66 129.2L1028.67 125.33C1025.9 124.606 1024.94 123.783 1024.7 123.447L1021.46 125.8ZM1027.66 129.2L1026.81 133.109C1030.08 133.819 1034.7 134.503 1040.61 135.174L1041.06 131.2L1041.51 127.226C1035.69 126.563 1031.38 125.915 1028.51 125.291L1027.66 129.2ZM1041.06 131.2L1040.62 135.176L1053.22 136.576L1053.66 132.6L1054.1 128.624L1041.5 127.224L1041.06 131.2ZM1053.66 132.6L1053.22 136.575C1063.66 137.75 1071.29 139.805 1076.38 142.527L1078.26 139L1080.15 135.473C1073.77 132.061 1065 129.85 1054.11 128.625L1053.66 132.6ZM1078.26 139L1076.38 142.527C1081.42 145.228 1084.64 148.71 1086.36 152.918L1090.06 151.4L1093.76 149.882C1091.22 143.69 1086.57 138.906 1080.15 135.473L1078.26 139ZM1090.06 151.4L1086.41 153.033C1088.39 157.449 1089.46 163.057 1089.46 170H1093.46H1097.46C1097.46 162.276 1096.27 155.484 1093.71 149.767L1090.06 151.4ZM1093.46 170H1089.46C1089.46 178.358 1087.66 185.024 1084.3 190.233L1087.66 192.4L1091.02 194.567C1095.4 187.776 1097.46 179.509 1097.46 170H1093.46ZM1087.66 192.4L1084.29 190.252C1081.17 195.153 1075.9 199.09 1067.96 201.817L1069.26 205.6L1070.56 209.383C1079.7 206.243 1086.69 201.38 1091.04 194.548L1087.66 192.4ZM1069.26 205.6L1067.96 201.817C1060.02 204.548 1049.11 206 1035.06 206V210V214C1049.55 214 1061.44 212.519 1070.56 209.383L1069.26 205.6ZM1035.06 210V206C1025.86 206 1017.63 205.539 1010.36 204.631L1009.86 208.6L1009.37 212.569C1017.03 213.527 1025.6 214 1035.06 214V210ZM1009.86 208.6L1010.43 204.64C1003.09 203.591 995.95 202.216 989.015 200.515L988.063 204.4L987.11 208.285C994.309 210.051 1001.7 211.475 1009.3 212.56L1009.86 208.6ZM988.063 204.4H992.063V176.2H988.063H984.063V204.4H988.063ZM988.063 176.2L990.462 179.4L991.262 178.8L988.863 175.6L986.463 172.4L985.663 173L988.063 176.2Z" fill="#FF5329"/>
</svg>

